<svg width="260" height="260" viewBox="0 0 260 260" fill="none" xmlns="http://www.w3.org/2000/svg">
<g clip-path="url(#clip0_906_769)">
<g clip-path="url(#clip1_906_769)">
<path d="M137.646 122.352H122.352V137.646H137.646V122.352Z" fill="#F5E78E"/>
<path d="M122.353 122.352H107.059V137.646H122.353V122.352Z" fill="#F5E78E"/>
<path d="M137.646 137.648H122.352V152.943H137.646V137.648Z" fill="#F5E78E"/>
<path d="M152.943 137.648H137.648V152.943H152.943V137.648Z" fill="#FEB8D2"/>
<path d="M152.943 107.059H137.648V122.353H152.943V107.059Z" fill="#FEB8D2"/>
<path d="M122.353 137.648H107.059V152.943H122.353V137.648Z" fill="#FEB8D2"/>
<path d="M122.353 107.059H107.059V122.353H122.353V107.059Z" fill="#FEB8D2"/>
<path d="M168.236 91.7656H152.941V107.06H168.236V91.7656Z" fill="#FEB8D2"/>
<path d="M168.236 152.941H152.941V168.236H168.236V152.941Z" fill="#FEB8D2"/>
<path d="M183.528 168.234H168.234V183.528H183.528V168.234Z" fill="#FEB8D2"/>
<path d="M183.528 76.4688H168.234V91.7629H183.528V76.4688Z" fill="#FEB8D2"/>
<path d="M91.7629 76.4688H76.4688V91.7629H91.7629V76.4688Z" fill="#FEB8D2"/>
<path d="M91.7629 168.234H76.4688V183.528H91.7629V168.234Z" fill="#FEB8D2"/>
<path d="M198.825 183.531H183.531V198.825H198.825V183.531Z" fill="#FEB8D2"/>
<path d="M214.118 183.531H198.824V198.825H214.118V183.531Z" fill="#FEB8D2"/>
<path d="M229.411 183.531H214.117V198.825H229.411V183.531Z" fill="#FEB8D2"/>
<path d="M198.825 198.824H183.531V214.118H198.825V198.824Z" fill="#FEB8D2"/>
<path d="M198.825 214.117H183.531V229.411H198.825V214.117Z" fill="#FEB8D2"/>
<path d="M198.825 61.1758H183.531V76.4699H198.825V61.1758Z" fill="#FEB8D2"/>
<path d="M214.118 61.1758H198.824V76.4699H214.118V61.1758Z" fill="#FEB8D2"/>
<path d="M229.411 61.1758H214.117V76.4699H229.411V61.1758Z" fill="#FEB8D2"/>
<path d="M198.825 45.8828H183.531V61.1769H198.825V45.8828Z" fill="#FEB8D2"/>
<path d="M198.825 30.5898H183.531V45.884H198.825V30.5898Z" fill="#FEB8D2"/>
<path d="M76.4699 61.1758H61.1758V76.4699H76.4699V61.1758Z" fill="#FEB8D2"/>
<path d="M76.4699 45.8828H61.1758V61.1769H76.4699V45.8828Z" fill="#FEB8D2"/>
<path d="M76.4699 30.5898H61.1758V45.884H76.4699V30.5898Z" fill="#FEB8D2"/>
<path d="M61.1769 61.1758H45.8828V76.4699H61.1769V61.1758Z" fill="#FEB8D2"/>
<path d="M45.884 61.1758H30.5898V76.4699H45.884V61.1758Z" fill="#FEB8D2"/>
<path d="M76.4699 183.531H61.1758V198.825H76.4699V183.531Z" fill="#FEB8D2"/>
<path d="M76.4699 198.824H61.1758V214.118H76.4699V198.824Z" fill="#FEB8D2"/>
<path d="M76.4699 214.117H61.1758V229.411H76.4699V214.117Z" fill="#FEB8D2"/>
<path d="M61.1769 183.531H45.8828V198.825H61.1769V183.531Z" fill="#FEB8D2"/>
<path d="M45.884 183.531H30.5898V198.825H45.884V183.531Z" fill="#FEB8D2"/>
<path d="M30.5871 168.234H15.293V183.528H30.5871V168.234Z" fill="#FEB8D2"/>
<path d="M91.7629 229.41H76.4688V244.704H91.7629V229.41Z" fill="#FEB8D2"/>
<path d="M183.528 229.41H168.234V244.704H183.528V229.41Z" fill="#FEB8D2"/>
<path d="M244.704 168.234H229.41V183.528H244.704V168.234Z" fill="#FEB8D2"/>
<path d="M244.704 76.4688H229.41V91.7629H244.704V76.4688Z" fill="#FEB8D2"/>
<path d="M183.528 15.293H168.234V30.5871H183.528V15.293Z" fill="#FEB8D2"/>
<path d="M91.7629 15.293H76.4688V30.5871H91.7629V15.293Z" fill="#FEB8D2"/>
<path d="M30.5871 76.4688H15.293V91.7629H30.5871V76.4688Z" fill="#FEB8D2"/>
<path d="M214.118 198.824H198.824V214.118H214.118V198.824Z" fill="#619D29"/>
<path d="M229.411 198.824H214.117V214.118H229.411V198.824Z" fill="#B5E48A"/>
<path d="M229.411 45.8828H214.117V61.1769H229.411V45.8828Z" fill="#B5E48A"/>
<path d="M214.118 30.5898H198.824V45.884H214.118V30.5898Z" fill="#B5E48A"/>
<path d="M229.411 30.5898H214.117V45.884H229.411V30.5898Z" fill="#B5E48A"/>
<path d="M45.884 198.824H30.5898V214.118H45.884V198.824Z" fill="#B5E48A"/>
<path d="M45.884 214.117H30.5898V229.411H45.884V214.117Z" fill="#B5E48A"/>
<path d="M61.1769 214.117H45.8828V229.411H61.1769V214.117Z" fill="#B5E48A"/>
<path d="M45.884 45.8828H30.5898V61.1769H45.884V45.8828Z" fill="#B5E48A"/>
<path d="M45.884 30.5898H30.5898V45.884H45.884V30.5898Z" fill="#B5E48A"/>
<path d="M61.1769 30.5898H45.8828V45.884H61.1769V30.5898Z" fill="#B5E48A"/>
<path d="M229.411 214.117H214.117V229.411H229.411V214.117Z" fill="#B5E48A"/>
<path d="M214.118 214.117H198.824V229.411H214.118V214.117Z" fill="#B5E48A"/>
<path d="M214.118 45.8828H198.824V61.1769H214.118V45.8828Z" fill="#619D29"/>
<path d="M61.1769 198.824H45.8828V214.118H61.1769V198.824Z" fill="#619D29"/>
<path d="M61.1769 45.8828H45.8828V61.1769H61.1769V45.8828Z" fill="#619D29"/>
<path d="M244.704 122.352H229.41V137.646H244.704V122.352Z" fill="#FEB8D2"/>
<path d="M137.646 229.41H122.352V244.704H137.646V229.41Z" fill="#FEB8D2"/>
<path d="M137.646 15.293H122.352V30.5871H137.646V15.293Z" fill="#FEB8D2"/>
<path d="M30.5871 122.352H15.293V137.646H30.5871V122.352Z" fill="#FEB8D2"/>
<path d="M260.001 137.648H244.707V152.943H260.001V137.648Z" fill="#FEB8D2"/>
<path d="M260.001 152.941H244.707V168.236H260.001V152.941Z" fill="#FEB8D2"/>
<path d="M260.001 107.059H244.707V122.353H260.001V107.059Z" fill="#FEB8D2"/>
<path d="M260.001 91.7656H244.707V107.06H260.001V91.7656Z" fill="#FEB8D2"/>
<path d="M152.943 0H137.648V15.2941H152.943V0Z" fill="#FEB8D2"/>
<path d="M168.236 0H152.941V15.2941H168.236V0Z" fill="#FEB8D2"/>
<path d="M122.353 0H107.059V15.2941H122.353V0Z" fill="#FEB8D2"/>
<path d="M107.06 0H91.7656V15.2941H107.06V0Z" fill="#FEB8D2"/>
<path d="M15.2941 107.059H0V122.353H15.2941V107.059Z" fill="#FEB8D2"/>
<path d="M15.2941 91.7656H0V107.06H15.2941V91.7656Z" fill="#FEB8D2"/>
<path d="M15.2941 137.648H0V152.943H15.2941V137.648Z" fill="#FEB8D2"/>
<path d="M15.2941 152.941H0V168.236H15.2941V152.941Z" fill="#FEB8D2"/>
<path d="M152.943 244.707H137.648V260.001H152.943V244.707Z" fill="#FEB8D2"/>
<path d="M168.236 244.707H152.941V260.001H168.236V244.707Z" fill="#FEB8D2"/>
<path d="M122.353 244.707H107.059V260.001H122.353V244.707Z" fill="#FEB8D2"/>
<path d="M107.06 244.707H91.7656V260.001H107.06V244.707Z" fill="#FEB8D2"/>
<path d="M152.943 152.941H137.648V168.236H152.943V152.941Z" fill="#FF7AAB"/>
<path d="M122.353 152.941H107.059V168.236H122.353V152.941Z" fill="#FF7AAB"/>
<path d="M137.646 152.941H122.352V168.236H137.646V152.941Z" fill="#FF7AAB"/>
<path d="M168.236 137.648H152.941V152.943H168.236V137.648Z" fill="#FF7AAB"/>
<path d="M168.236 122.352H152.941V137.646H168.236V122.352Z" fill="#FF7AAB"/>
<path d="M168.236 107.059H152.941V122.353H168.236V107.059Z" fill="#FF7AAB"/>
<path d="M152.943 91.7656H137.648V107.06H152.943V91.7656Z" fill="#FF7AAB"/>
<path d="M137.646 91.7656H122.352V107.06H137.646V91.7656Z" fill="#FF7AAB"/>
<path d="M122.353 91.7656H107.059V107.06H122.353V91.7656Z" fill="#FF7AAB"/>
<path d="M107.06 107.059H91.7656V122.353H107.06V107.059Z" fill="#FF7AAB"/>
<path d="M107.06 122.352H91.7656V137.646H107.06V122.352Z" fill="#FF7AAB"/>
<path d="M107.06 137.648H91.7656V152.943H107.06V137.648Z" fill="#FF7AAB"/>
<path d="M183.528 122.352H168.234V137.646H183.528V122.352Z" fill="#FF7AAB"/>
<path d="M198.825 122.352H183.531V137.646H198.825V122.352Z" fill="#FF7AAB"/>
<path d="M137.646 168.234H122.352V183.528H137.646V168.234Z" fill="#FF7AAB"/>
<path d="M137.646 183.531H122.352V198.825H137.646V183.531Z" fill="#FF7AAB"/>
<path d="M91.7629 122.352H76.4688V137.646H91.7629V122.352Z" fill="#FF7AAB"/>
<path d="M76.4699 122.352H61.1758V137.646H76.4699V122.352Z" fill="#FF7AAB"/>
<path d="M137.646 76.4688H122.352V91.7629H137.646V76.4688Z" fill="#FF7AAB"/>
<path d="M137.646 61.1758H122.352V76.4699H137.646V61.1758Z" fill="#FF7AAB"/>
<path d="M137.646 214.117H122.352V229.411H137.646V214.117Z" fill="#FF7AAB"/>
<path d="M229.411 122.352H214.117V137.646H229.411V122.352Z" fill="#FF7AAB"/>
<path d="M137.646 30.5898H122.352V45.884H137.646V30.5898Z" fill="#FF7AAB"/>
<path d="M45.884 122.352H30.5898V137.646H45.884V122.352Z" fill="#FF7AAB"/>
<path d="M107.06 152.941H91.7656V168.236H107.06V152.941Z" fill="#FEB8D2"/>
<path d="M107.06 91.7656H91.7656V107.06H107.06V91.7656Z" fill="#FEB8D2"/>
<path d="M137.646 107.059H122.352V122.353H137.646V107.059Z" fill="#F5E78E"/>
<path d="M152.943 122.352H137.648V137.646H152.943V122.352Z" fill="#F5E78E"/>
</g>
</g>
<defs>
<clipPath id="clip0_906_769">
<rect width="260" height="260" fill="white"/>
</clipPath>
<clipPath id="clip1_906_769">
<rect width="260" height="260" fill="white"/>
</clipPath>
</defs>
</svg>
