<svg width="260" height="260" viewBox="0 0 260 260" fill="none" xmlns="http://www.w3.org/2000/svg">
<g clip-path="url(#clip0_906_769)">
<path d="M135.295 124.707H124.707V135.295H135.295V124.707Z" fill="#F5E78E"/>
<path d="M124.705 124.707H114.117V135.295H124.705V124.707Z" fill="#F5E78E"/>
<path d="M135.295 135.293H124.707V145.881H135.295V135.293Z" fill="#F5E78E"/>
<path d="M145.881 135.293H135.293V145.881H145.881V135.293Z" fill="#FEB8D2"/>
<path d="M145.881 114.117H135.293V124.705H145.881V114.117Z" fill="#FEB8D2"/>
<path d="M124.705 135.293H114.117V145.881H124.705V135.293Z" fill="#FEB8D2"/>
<path d="M124.705 114.117H114.117V124.705H124.705V114.117Z" fill="#FEB8D2"/>
<path d="M156.471 103.531H145.883V114.119H156.471V103.531Z" fill="#FEB8D2"/>
<path d="M156.471 145.883H145.883V156.471H156.471V145.883Z" fill="#FEB8D2"/>
<path d="M167.057 156.469H156.469V167.057H167.057V156.469Z" fill="#FEB8D2"/>
<path d="M167.057 92.9414H156.469V103.53H167.057V92.9414Z" fill="#FEB8D2"/>
<path d="M103.53 92.9414H92.9414V103.53H103.53V92.9414Z" fill="#FEB8D2"/>
<path d="M103.53 156.469H92.9414V167.057H103.53V156.469Z" fill="#FEB8D2"/>
<path d="M177.647 167.059H167.059V177.647H177.647V167.059Z" fill="#FEB8D2"/>
<path d="M188.237 167.059H177.648V177.647H188.237V167.059Z" fill="#FEB8D2"/>
<path d="M198.823 167.059H188.234V177.647H198.823V167.059Z" fill="#FEB8D2"/>
<path d="M177.647 177.648H167.059V188.237H177.647V177.648Z" fill="#FEB8D2"/>
<path d="M177.647 188.234H167.059V198.823H177.647V188.234Z" fill="#FEB8D2"/>
<path d="M177.647 82.3516H167.059V92.9398H177.647V82.3516Z" fill="#FEB8D2"/>
<path d="M188.237 82.3516H177.648V92.9398H188.237V82.3516Z" fill="#FEB8D2"/>
<path d="M198.823 82.3516H188.234V92.9398H198.823V82.3516Z" fill="#FEB8D2"/>
<path d="M177.647 71.7656H167.059V82.3539H177.647V71.7656Z" fill="#FEB8D2"/>
<path d="M177.647 61.1758H167.059V71.764H177.647V61.1758Z" fill="#FEB8D2"/>
<path d="M92.9398 82.3516H82.3516V92.9398H92.9398V82.3516Z" fill="#FEB8D2"/>
<path d="M92.9398 71.7656H82.3516V82.3539H92.9398V71.7656Z" fill="#FEB8D2"/>
<path d="M92.9398 61.1758H82.3516V71.764H92.9398V61.1758Z" fill="#FEB8D2"/>
<path d="M82.3539 82.3516H71.7656V92.9398H82.3539V82.3516Z" fill="#FEB8D2"/>
<path d="M71.764 82.3516H61.1758V92.9398H71.764V82.3516Z" fill="#FEB8D2"/>
<path d="M92.9398 167.059H82.3516V177.647H92.9398V167.059Z" fill="#FEB8D2"/>
<path d="M92.9398 177.648H82.3516V188.237H92.9398V177.648Z" fill="#FEB8D2"/>
<path d="M92.9398 188.234H82.3516V198.823H92.9398V188.234Z" fill="#FEB8D2"/>
<path d="M82.3539 167.059H71.7656V177.647H82.3539V167.059Z" fill="#FEB8D2"/>
<path d="M71.764 167.059H61.1758V177.647H71.764V167.059Z" fill="#FEB8D2"/>
<path d="M61.1781 156.469H50.5898V167.057H61.1781V156.469Z" fill="#FEB8D2"/>
<path d="M103.53 198.824H92.9414V209.412H103.53V198.824Z" fill="#FEB8D2"/>
<path d="M167.057 198.824H156.469V209.412H167.057V198.824Z" fill="#FEB8D2"/>
<path d="M209.412 156.469H198.824V167.057H209.412V156.469Z" fill="#FEB8D2"/>
<path d="M209.412 92.9414H198.824V103.53H209.412V92.9414Z" fill="#FEB8D2"/>
<path d="M167.057 50.5898H156.469V61.1781H167.057V50.5898Z" fill="#FEB8D2"/>
<path d="M103.53 50.5898H92.9414V61.1781H103.53V50.5898Z" fill="#FEB8D2"/>
<path d="M61.1781 92.9414H50.5898V103.53H61.1781V92.9414Z" fill="#FEB8D2"/>
<path d="M188.237 177.648H177.648V188.237H188.237V177.648Z" fill="#619D29"/>
<path d="M198.823 177.648H188.234V188.237H198.823V177.648Z" fill="#B5E48A"/>
<path d="M198.823 71.7656H188.234V82.3539H198.823V71.7656Z" fill="#B5E48A"/>
<path d="M188.237 61.1758H177.648V71.764H188.237V61.1758Z" fill="#B5E48A"/>
<path d="M198.823 61.1758H188.234V71.764H198.823V61.1758Z" fill="#B5E48A"/>
<path d="M71.764 177.648H61.1758V188.237H71.764V177.648Z" fill="#B5E48A"/>
<path d="M71.764 188.234H61.1758V198.823H71.764V188.234Z" fill="#B5E48A"/>
<path d="M82.3539 188.234H71.7656V198.823H82.3539V188.234Z" fill="#B5E48A"/>
<path d="M71.764 71.7656H61.1758V82.3539H71.764V71.7656Z" fill="#B5E48A"/>
<path d="M71.764 61.1758H61.1758V71.764H71.764V61.1758Z" fill="#B5E48A"/>
<path d="M82.3539 61.1758H71.7656V71.764H82.3539V61.1758Z" fill="#B5E48A"/>
<path d="M198.823 188.234H188.234V198.823H198.823V188.234Z" fill="#B5E48A"/>
<path d="M188.237 188.234H177.648V198.823H188.237V188.234Z" fill="#B5E48A"/>
<path d="M188.237 71.7656H177.648V82.3539H188.237V71.7656Z" fill="#619D29"/>
<path d="M82.3539 177.648H71.7656V188.237H82.3539V177.648Z" fill="#619D29"/>
<path d="M82.3539 71.7656H71.7656V82.3539H82.3539V71.7656Z" fill="#619D29"/>
<path d="M209.412 124.707H198.824V135.295H209.412V124.707Z" fill="#FEB8D2"/>
<path d="M135.295 198.824H124.707V209.412H135.295V198.824Z" fill="#FEB8D2"/>
<path d="M135.295 50.5898H124.707V61.1781H135.295V50.5898Z" fill="#FEB8D2"/>
<path d="M61.1781 124.707H50.5898V135.295H61.1781V124.707Z" fill="#FEB8D2"/>
<path d="M219.998 135.293H209.41V145.881H219.998V135.293Z" fill="#FEB8D2"/>
<path d="M219.998 145.883H209.41V156.471H219.998V145.883Z" fill="#FEB8D2"/>
<path d="M219.998 114.117H209.41V124.705H219.998V114.117Z" fill="#FEB8D2"/>
<path d="M219.998 103.531H209.41V114.119H219.998V103.531Z" fill="#FEB8D2"/>
<path d="M145.881 40H135.293V50.5882H145.881V40Z" fill="#FEB8D2"/>
<path d="M156.471 40H145.883V50.5882H156.471V40Z" fill="#FEB8D2"/>
<path d="M124.705 40H114.117V50.5882H124.705V40Z" fill="#FEB8D2"/>
<path d="M114.119 40H103.531V50.5882H114.119V40Z" fill="#FEB8D2"/>
<path d="M50.5882 114.117H40V124.705H50.5882V114.117Z" fill="#FEB8D2"/>
<path d="M50.5882 103.531H40V114.119H50.5882V103.531Z" fill="#FEB8D2"/>
<path d="M50.5882 135.293H40V145.881H50.5882V135.293Z" fill="#FEB8D2"/>
<path d="M50.5882 145.883H40V156.471H50.5882V145.883Z" fill="#FEB8D2"/>
<path d="M145.881 209.41H135.293V219.998H145.881V209.41Z" fill="#FEB8D2"/>
<path d="M156.471 209.41H145.883V219.998H156.471V209.41Z" fill="#FEB8D2"/>
<path d="M124.705 209.41H114.117V219.998H124.705V209.41Z" fill="#FEB8D2"/>
<path d="M114.119 209.41H103.531V219.998H114.119V209.41Z" fill="#FEB8D2"/>
<path d="M145.881 145.883H135.293V156.471H145.881V145.883Z" fill="#FF7AAB"/>
<path d="M124.705 145.883H114.117V156.471H124.705V145.883Z" fill="#FF7AAB"/>
<path d="M135.295 145.883H124.707V156.471H135.295V145.883Z" fill="#FF7AAB"/>
<path d="M156.471 135.293H145.883V145.881H156.471V135.293Z" fill="#FF7AAB"/>
<path d="M156.471 124.707H145.883V135.295H156.471V124.707Z" fill="#FF7AAB"/>
<path d="M156.471 114.117H145.883V124.705H156.471V114.117Z" fill="#FF7AAB"/>
<path d="M145.881 103.531H135.293V114.119H145.881V103.531Z" fill="#FF7AAB"/>
<path d="M135.295 103.531H124.707V114.119H135.295V103.531Z" fill="#FF7AAB"/>
<path d="M124.705 103.531H114.117V114.119H124.705V103.531Z" fill="#FF7AAB"/>
<path d="M114.119 114.117H103.531V124.705H114.119V114.117Z" fill="#FF7AAB"/>
<path d="M114.119 124.707H103.531V135.295H114.119V124.707Z" fill="#FF7AAB"/>
<path d="M114.119 135.293H103.531V145.881H114.119V135.293Z" fill="#FF7AAB"/>
<path d="M167.057 124.707H156.469V135.295H167.057V124.707Z" fill="#FF7AAB"/>
<path d="M177.647 124.707H167.059V135.295H177.647V124.707Z" fill="#FF7AAB"/>
<path d="M135.295 156.469H124.707V167.057H135.295V156.469Z" fill="#FF7AAB"/>
<path d="M135.295 167.059H124.707V177.647H135.295V167.059Z" fill="#FF7AAB"/>
<path d="M103.53 124.707H92.9414V135.295H103.53V124.707Z" fill="#FF7AAB"/>
<path d="M92.9398 124.707H82.3516V135.295H92.9398V124.707Z" fill="#FF7AAB"/>
<path d="M135.295 92.9414H124.707V103.53H135.295V92.9414Z" fill="#FF7AAB"/>
<path d="M135.295 82.3516H124.707V92.9398H135.295V82.3516Z" fill="#FF7AAB"/>
<path d="M135.295 188.234H124.707V198.823H135.295V188.234Z" fill="#FF7AAB"/>
<path d="M198.823 124.707H188.234V135.295H198.823V124.707Z" fill="#FF7AAB"/>
<path d="M135.295 61.1758H124.707V71.764H135.295V61.1758Z" fill="#FF7AAB"/>
<path d="M71.764 124.707H61.1758V135.295H71.764V124.707Z" fill="#FF7AAB"/>
<path d="M114.119 145.883H103.531V156.471H114.119V145.883Z" fill="#FEB8D2"/>
<path d="M114.119 103.531H103.531V114.119H114.119V103.531Z" fill="#FEB8D2"/>
<path d="M135.295 114.117H124.707V124.705H135.295V114.117Z" fill="#F5E78E"/>
<path d="M145.881 124.707H135.293V135.295H145.881V124.707Z" fill="#F5E78E"/>
</g>
<defs>
<clipPath id="clip0_906_769">
<rect width="180" height="180" fill="white" transform="translate(40 40)"/>
</clipPath>
</defs>
</svg>
