<svg width="260" height="260" viewBox="0 0 260 260" fill="none" xmlns="http://www.w3.org/2000/svg">
<g clip-path="url(#clip0_906_769)">
<g clip-path="url(#clip1_906_769)">
<path d="M137.646 122.352H122.352V137.646H137.646V122.352Z" fill="#F5E78E"/>
<path d="M122.353 122.352H107.059V137.646H122.353V122.352Z" fill="#F5E78E"/>
<path d="M137.646 137.648H122.352V152.943H137.646V137.648Z" fill="#F5E78E"/>
<path d="M152.943 137.648H137.648V152.943H152.943V137.648Z" fill="#FEB8D2"/>
<path d="M152.943 107.059H137.648V122.353H152.943V107.059Z" fill="#FEB8D2"/>
<path d="M122.353 137.648H107.059V152.943H122.353V137.648Z" fill="#FEB8D2"/>
<path d="M122.353 107.059H107.059V122.353H122.353V107.059Z" fill="#FEB8D2"/>
<path d="M168.236 91.7656H152.941V107.06H168.236V91.7656Z" fill="#FEB8D2"/>
<path d="M168.236 152.941H152.941V168.236H168.236V152.941Z" fill="#FEB8D2"/>
<path d="M183.528 168.234H168.234V183.528H183.528V168.234Z" fill="#FEB8D2"/>
<path d="M183.528 76.4688H168.234V91.7629H183.528V76.4688Z" fill="#FEB8D2"/>
<path d="M91.7629 76.4688H76.4688V91.7629H91.7629V76.4688Z" fill="#FEB8D2"/>
<path d="M91.7629 61.1758H76.4688V76.4699H91.7629V61.1758Z" fill="white"/>
<path d="M91.7629 45.8828H76.4688V61.1769H91.7629V45.8828Z" fill="white"/>
<path d="M91.7629 30.5898H76.4688V45.884H91.7629V30.5898Z" fill="white"/>
<path d="M107.06 76.4688H91.7656V91.7629H107.06V76.4688Z" fill="white"/>
<path d="M122.353 76.4688H107.059V91.7629H122.353V76.4688Z" fill="white"/>
<path d="M122.353 61.1758H107.059V76.4699H122.353V61.1758Z" fill="white"/>
<path d="M107.06 61.1758H91.7656V76.4699H107.06V61.1758Z" fill="white"/>
<path d="M107.06 45.8828H91.7656V61.1769H107.06V45.8828Z" fill="white"/>
<path d="M107.06 30.5898H91.7656V45.884H107.06V30.5898Z" fill="white"/>
<path d="M107.06 15.293H91.7656V30.5871H107.06V15.293Z" fill="white"/>
<path d="M122.353 15.293H107.059V30.5871H122.353V15.293Z" fill="white"/>
<path d="M122.353 30.5898H107.059V45.884H122.353V30.5898Z" fill="white"/>
<path d="M122.353 45.8828H107.059V61.1769H122.353V45.8828Z" fill="white"/>
<path d="M137.646 45.8828H122.352V61.1769H137.646V45.8828Z" fill="white"/>
<path d="M152.943 15.293H137.648V30.5871H152.943V15.293Z" fill="white"/>
<path d="M168.236 15.293H152.941V30.5871H168.236V15.293Z" fill="white"/>
<path d="M152.943 30.5898H137.648V45.884H152.943V30.5898Z" fill="white"/>
<path d="M168.236 30.5898H152.941V45.884H168.236V30.5898Z" fill="white"/>
<path d="M183.528 30.5898H168.234V45.884H183.528V30.5898Z" fill="white"/>
<path d="M152.943 45.8828H137.648V61.1769H152.943V45.8828Z" fill="white"/>
<path d="M168.236 45.8828H152.941V61.1769H168.236V45.8828Z" fill="white"/>
<path d="M183.528 45.8828H168.234V61.1769H183.528V45.8828Z" fill="white"/>
<path d="M183.528 61.1758H168.234V76.4699H183.528V61.1758Z" fill="white"/>
<path d="M168.236 61.1758H152.941V76.4699H168.236V61.1758Z" fill="white"/>
<path d="M152.943 61.1758H137.648V76.4699H152.943V61.1758Z" fill="white"/>
<path d="M168.236 76.4688H152.941V91.7629H168.236V76.4688Z" fill="white"/>
<path d="M152.943 76.4688H137.648V91.7629H152.943V76.4688Z" fill="white"/>
<path d="M45.884 76.4688H30.5898V91.7629H45.884V76.4688Z" fill="white"/>
<path d="M91.7629 107.059H76.4688V122.353H91.7629V107.059Z" fill="white"/>
<path d="M91.7629 91.7656H76.4688V107.06H91.7629V91.7656Z" fill="white"/>
<path d="M76.4699 76.4688H61.1758V91.7629H76.4699V76.4688Z" fill="white"/>
<path d="M61.1769 76.4688H45.8828V91.7629H61.1769V76.4688Z" fill="white"/>
<path d="M91.7629 152.941H76.4688V168.236H91.7629V152.941Z" fill="white"/>
<path d="M91.7629 137.648H76.4688V152.943H91.7629V137.648Z" fill="white"/>
<path d="M76.4699 91.7656H61.1758V107.06H76.4699V91.7656Z" fill="white"/>
<path d="M61.1769 91.7656H45.8828V107.06H61.1769V91.7656Z" fill="white"/>
<path d="M45.884 91.7656H30.5898V107.06H45.884V91.7656Z" fill="white"/>
<path d="M30.5871 91.7656H15.293V107.06H30.5871V91.7656Z" fill="white"/>
<path d="M30.5871 107.059H15.293V122.353H30.5871V107.059Z" fill="white"/>
<path d="M45.884 107.059H30.5898V122.353H45.884V107.059Z" fill="white"/>
<path d="M61.1769 107.059H45.8828V122.353H61.1769V107.059Z" fill="white"/>
<path d="M76.4699 107.059H61.1758V122.353H76.4699V107.059Z" fill="white"/>
<path d="M61.1769 122.352H45.8828V137.646H61.1769V122.352Z" fill="white"/>
<path d="M76.4699 137.648H61.1758V152.943H76.4699V137.648Z" fill="white"/>
<path d="M76.4699 152.941H61.1758V168.236H76.4699V152.941Z" fill="white"/>
<path d="M76.4699 168.234H61.1758V183.528H76.4699V168.234Z" fill="white"/>
<path d="M107.06 168.234H91.7656V183.528H107.06V168.234Z" fill="white"/>
<path d="M122.353 168.234H107.059V183.528H122.353V168.234Z" fill="white"/>
<path d="M122.353 183.531H107.059V198.825H122.353V183.531Z" fill="white"/>
<path d="M91.7629 183.531H76.4688V198.825H91.7629V183.531Z" fill="white"/>
<path d="M107.06 183.531H91.7656V198.825H107.06V183.531Z" fill="white"/>
<path d="M91.7629 198.824H76.4688V214.118H91.7629V198.824Z" fill="white"/>
<path d="M91.7629 214.117H76.4688V229.411H91.7629V214.117Z" fill="white"/>
<path d="M107.06 229.41H91.7656V244.704H107.06V229.41Z" fill="white"/>
<path d="M107.06 198.824H91.7656V214.118H107.06V198.824Z" fill="white"/>
<path d="M107.06 214.117H91.7656V229.411H107.06V214.117Z" fill="white"/>
<path d="M122.353 198.824H107.059V214.118H122.353V198.824Z" fill="white"/>
<path d="M122.353 214.117H107.059V229.411H122.353V214.117Z" fill="white"/>
<path d="M122.353 229.41H107.059V244.704H122.353V229.41Z" fill="white"/>
<path d="M137.646 198.824H122.352V214.118H137.646V198.824Z" fill="white"/>
<path d="M152.943 168.234H137.648V183.528H152.943V168.234Z" fill="white"/>
<path d="M168.236 168.234H152.941V183.528H168.236V168.234Z" fill="white"/>
<path d="M152.943 183.531H137.648V198.825H152.943V183.531Z" fill="white"/>
<path d="M168.236 183.531H152.941V198.825H168.236V183.531Z" fill="white"/>
<path d="M183.528 183.531H168.234V198.825H183.528V183.531Z" fill="white"/>
<path d="M152.943 198.824H137.648V214.118H152.943V198.824Z" fill="white"/>
<path d="M168.236 198.824H152.941V214.118H168.236V198.824Z" fill="white"/>
<path d="M183.528 198.824H168.234V214.118H183.528V198.824Z" fill="white"/>
<path d="M183.528 214.117H168.234V229.411H183.528V214.117Z" fill="white"/>
<path d="M168.236 214.117H152.941V229.411H168.236V214.117Z" fill="white"/>
<path d="M152.943 214.117H137.648V229.411H152.943V214.117Z" fill="white"/>
<path d="M168.236 229.41H152.941V244.704H168.236V229.41Z" fill="white"/>
<path d="M152.943 229.41H137.648V244.704H152.943V229.41Z" fill="white"/>
<path d="M183.528 137.648H168.234V152.943H183.528V137.648Z" fill="white"/>
<path d="M183.528 152.941H168.234V168.236H183.528V152.941Z" fill="white"/>
<path d="M214.118 122.352H198.824V137.646H214.118V122.352Z" fill="white"/>
<path d="M198.825 137.648H183.531V152.943H198.825V137.648Z" fill="white"/>
<path d="M214.118 137.648H198.824V152.943H214.118V137.648Z" fill="white"/>
<path d="M229.411 137.648H214.117V152.943H229.411V137.648Z" fill="white"/>
<path d="M244.704 137.648H229.41V152.943H244.704V137.648Z" fill="white"/>
<path d="M198.825 152.941H183.531V168.236H198.825V152.941Z" fill="white"/>
<path d="M214.118 152.941H198.824V168.236H214.118V152.941Z" fill="white"/>
<path d="M229.411 152.941H214.117V168.236H229.411V152.941Z" fill="white"/>
<path d="M244.704 152.941H229.41V168.236H244.704V152.941Z" fill="white"/>
<path d="M198.825 168.234H183.531V183.528H198.825V168.234Z" fill="white"/>
<path d="M214.118 168.234H198.824V183.528H214.118V168.234Z" fill="white"/>
<path d="M229.411 168.234H214.117V183.528H229.411V168.234Z" fill="white"/>
<path d="M183.528 107.059H168.234V122.353H183.528V107.059Z" fill="white"/>
<path d="M198.825 107.059H183.531V122.353H198.825V107.059Z" fill="white"/>
<path d="M183.528 91.7656H168.234V107.06H183.528V91.7656Z" fill="white"/>
<path d="M198.825 76.4688H183.531V91.7629H198.825V76.4688Z" fill="white"/>
<path d="M198.825 91.7656H183.531V107.06H198.825V91.7656Z" fill="white"/>
<path d="M214.118 76.4688H198.824V91.7629H214.118V76.4688Z" fill="white"/>
<path d="M229.411 76.4688H214.117V91.7629H229.411V76.4688Z" fill="white"/>
<path d="M214.118 91.7656H198.824V107.06H214.118V91.7656Z" fill="white"/>
<path d="M229.411 91.7656H214.117V107.06H229.411V91.7656Z" fill="white"/>
<path d="M244.704 91.7656H229.41V107.06H244.704V91.7656Z" fill="white"/>
<path d="M244.704 107.059H229.41V122.353H244.704V107.059Z" fill="white"/>
<path d="M229.411 107.059H214.117V122.353H229.411V107.059Z" fill="white"/>
<path d="M214.118 107.059H198.824V122.353H214.118V107.059Z" fill="white"/>
<path d="M183.528 137.648H168.234V152.943H183.528V137.648Z" fill="white"/>
<path d="M61.1769 137.648H45.8828V152.943H61.1769V137.648Z" fill="white"/>
<path d="M45.884 137.648H30.5898V152.943H45.884V137.648Z" fill="white"/>
<path d="M30.5871 137.648H15.293V152.943H30.5871V137.648Z" fill="white"/>
<path d="M30.5871 152.941H15.293V168.236H30.5871V152.941Z" fill="white"/>
<path d="M45.884 152.941H30.5898V168.236H45.884V152.941Z" fill="white"/>
<path d="M61.1769 152.941H45.8828V168.236H61.1769V152.941Z" fill="white"/>
<path d="M45.884 168.234H30.5898V183.528H45.884V168.234Z" fill="white"/>
<path d="M61.1769 168.234H45.8828V183.528H61.1769V168.234Z" fill="white"/>
<path d="M91.7629 168.234H76.4688V183.528H91.7629V168.234Z" fill="#FEB8D2"/>
<path d="M198.825 183.531H183.531V198.825H198.825V183.531Z" fill="#FEB8D2"/>
<path d="M214.118 183.531H198.824V198.825H214.118V183.531Z" fill="#FEB8D2"/>
<path d="M229.411 183.531H214.117V198.825H229.411V183.531Z" fill="#FEB8D2"/>
<path d="M198.825 198.824H183.531V214.118H198.825V198.824Z" fill="#FEB8D2"/>
<path d="M198.825 214.117H183.531V229.411H198.825V214.117Z" fill="#FEB8D2"/>
<path d="M198.825 61.1758H183.531V76.4699H198.825V61.1758Z" fill="#FEB8D2"/>
<path d="M214.118 61.1758H198.824V76.4699H214.118V61.1758Z" fill="#FEB8D2"/>
<path d="M229.411 61.1758H214.117V76.4699H229.411V61.1758Z" fill="#FEB8D2"/>
<path d="M198.825 45.8828H183.531V61.1769H198.825V45.8828Z" fill="#FEB8D2"/>
<path d="M198.825 30.5898H183.531V45.884H198.825V30.5898Z" fill="#FEB8D2"/>
<path d="M76.4699 61.1758H61.1758V76.4699H76.4699V61.1758Z" fill="#FEB8D2"/>
<path d="M76.4699 45.8828H61.1758V61.1769H76.4699V45.8828Z" fill="#FEB8D2"/>
<path d="M76.4699 30.5898H61.1758V45.884H76.4699V30.5898Z" fill="#FEB8D2"/>
<path d="M61.1769 61.1758H45.8828V76.4699H61.1769V61.1758Z" fill="#FEB8D2"/>
<path d="M45.884 61.1758H30.5898V76.4699H45.884V61.1758Z" fill="#FEB8D2"/>
<path d="M76.4699 183.531H61.1758V198.825H76.4699V183.531Z" fill="#FEB8D2"/>
<path d="M76.4699 198.824H61.1758V214.118H76.4699V198.824Z" fill="#FEB8D2"/>
<path d="M76.4699 214.117H61.1758V229.411H76.4699V214.117Z" fill="#FEB8D2"/>
<path d="M61.1769 183.531H45.8828V198.825H61.1769V183.531Z" fill="#FEB8D2"/>
<path d="M45.884 183.531H30.5898V198.825H45.884V183.531Z" fill="#FEB8D2"/>
<path d="M30.5871 168.234H15.293V183.528H30.5871V168.234Z" fill="#FEB8D2"/>
<path d="M91.7629 229.41H76.4688V244.704H91.7629V229.41Z" fill="#FEB8D2"/>
<path d="M183.528 229.41H168.234V244.704H183.528V229.41Z" fill="#FEB8D2"/>
<path d="M244.704 168.234H229.41V183.528H244.704V168.234Z" fill="#FEB8D2"/>
<path d="M244.704 76.4688H229.41V91.7629H244.704V76.4688Z" fill="#FEB8D2"/>
<path d="M183.528 15.293H168.234V30.5871H183.528V15.293Z" fill="#FEB8D2"/>
<path d="M91.7629 15.293H76.4688V30.5871H91.7629V15.293Z" fill="#FEB8D2"/>
<path d="M30.5871 76.4688H15.293V91.7629H30.5871V76.4688Z" fill="#FEB8D2"/>
<path d="M214.118 198.824H198.824V214.118H214.118V198.824Z" fill="#619D29"/>
<path d="M229.411 198.824H214.117V214.118H229.411V198.824Z" fill="#B5E48A"/>
<path d="M229.411 45.8828H214.117V61.1769H229.411V45.8828Z" fill="#B5E48A"/>
<path d="M214.118 30.5898H198.824V45.884H214.118V30.5898Z" fill="#B5E48A"/>
<path d="M229.411 30.5898H214.117V45.884H229.411V30.5898Z" fill="#B5E48A"/>
<path d="M45.884 198.824H30.5898V214.118H45.884V198.824Z" fill="#B5E48A"/>
<path d="M45.884 214.117H30.5898V229.411H45.884V214.117Z" fill="#B5E48A"/>
<path d="M61.1769 214.117H45.8828V229.411H61.1769V214.117Z" fill="#B5E48A"/>
<path d="M45.884 45.8828H30.5898V61.1769H45.884V45.8828Z" fill="#B5E48A"/>
<path d="M45.884 30.5898H30.5898V45.884H45.884V30.5898Z" fill="#B5E48A"/>
<path d="M61.1769 30.5898H45.8828V45.884H61.1769V30.5898Z" fill="#B5E48A"/>
<path d="M229.411 214.117H214.117V229.411H229.411V214.117Z" fill="#B5E48A"/>
<path d="M214.118 214.117H198.824V229.411H214.118V214.117Z" fill="#B5E48A"/>
<path d="M214.118 45.8828H198.824V61.1769H214.118V45.8828Z" fill="#619D29"/>
<path d="M61.1769 198.824H45.8828V214.118H61.1769V198.824Z" fill="#619D29"/>
<path d="M61.1769 45.8828H45.8828V61.1769H61.1769V45.8828Z" fill="#619D29"/>
<path d="M244.704 122.352H229.41V137.646H244.704V122.352Z" fill="#FEB8D2"/>
<path d="M137.646 229.41H122.352V244.704H137.646V229.41Z" fill="#FEB8D2"/>
<path d="M137.646 15.293H122.352V30.5871H137.646V15.293Z" fill="#FEB8D2"/>
<path d="M30.5871 122.352H15.293V137.646H30.5871V122.352Z" fill="#FEB8D2"/>
<path d="M260.001 137.648H244.707V152.943H260.001V137.648Z" fill="#FEB8D2"/>
<path d="M260.001 152.941H244.707V168.236H260.001V152.941Z" fill="#FEB8D2"/>
<path d="M260.001 107.059H244.707V122.353H260.001V107.059Z" fill="#FEB8D2"/>
<path d="M260.001 91.7656H244.707V107.06H260.001V91.7656Z" fill="#FEB8D2"/>
<path d="M152.943 0H137.648V15.2941H152.943V0Z" fill="#FEB8D2"/>
<path d="M168.236 0H152.941V15.2941H168.236V0Z" fill="#FEB8D2"/>
<path d="M122.353 0H107.059V15.2941H122.353V0Z" fill="#FEB8D2"/>
<path d="M107.06 0H91.7656V15.2941H107.06V0Z" fill="#FEB8D2"/>
<path d="M15.2941 107.059H0V122.353H15.2941V107.059Z" fill="#FEB8D2"/>
<path d="M15.2941 91.7656H0V107.06H15.2941V91.7656Z" fill="#FEB8D2"/>
<path d="M15.2941 137.648H0V152.943H15.2941V137.648Z" fill="#FEB8D2"/>
<path d="M15.2941 152.941H0V168.236H15.2941V152.941Z" fill="#FEB8D2"/>
<path d="M152.943 244.707H137.648V260.001H152.943V244.707Z" fill="#FEB8D2"/>
<path d="M168.236 244.707H152.941V260.001H168.236V244.707Z" fill="#FEB8D2"/>
<path d="M122.353 244.707H107.059V260.001H122.353V244.707Z" fill="#FEB8D2"/>
<path d="M107.06 244.707H91.7656V260.001H107.06V244.707Z" fill="#FEB8D2"/>
<path d="M152.943 152.941H137.648V168.236H152.943V152.941Z" fill="#FF7AAB"/>
<path d="M122.353 152.941H107.059V168.236H122.353V152.941Z" fill="#FF7AAB"/>
<path d="M137.646 152.941H122.352V168.236H137.646V152.941Z" fill="#FF7AAB"/>
<path d="M168.236 137.648H152.941V152.943H168.236V137.648Z" fill="#FF7AAB"/>
<path d="M168.236 122.352H152.941V137.646H168.236V122.352Z" fill="#FF7AAB"/>
<path d="M168.236 107.059H152.941V122.353H168.236V107.059Z" fill="#FF7AAB"/>
<path d="M152.943 91.7656H137.648V107.06H152.943V91.7656Z" fill="#FF7AAB"/>
<path d="M137.646 91.7656H122.352V107.06H137.646V91.7656Z" fill="#FF7AAB"/>
<path d="M122.353 91.7656H107.059V107.06H122.353V91.7656Z" fill="#FF7AAB"/>
<path d="M107.06 107.059H91.7656V122.353H107.06V107.059Z" fill="#FF7AAB"/>
<path d="M107.06 122.352H91.7656V137.646H107.06V122.352Z" fill="#FF7AAB"/>
<path d="M107.06 137.648H91.7656V152.943H107.06V137.648Z" fill="#FF7AAB"/>
<path d="M183.528 122.352H168.234V137.646H183.528V122.352Z" fill="#FF7AAB"/>
<path d="M198.825 122.352H183.531V137.646H198.825V122.352Z" fill="#FF7AAB"/>
<path d="M137.646 168.234H122.352V183.528H137.646V168.234Z" fill="#FF7AAB"/>
<path d="M137.646 183.531H122.352V198.825H137.646V183.531Z" fill="#FF7AAB"/>
<path d="M91.7629 122.352H76.4688V137.646H91.7629V122.352Z" fill="#FF7AAB"/>
<path d="M76.4699 122.352H61.1758V137.646H76.4699V122.352Z" fill="#FF7AAB"/>
<path d="M137.646 76.4688H122.352V91.7629H137.646V76.4688Z" fill="#FF7AAB"/>
<path d="M137.646 61.1758H122.352V76.4699H137.646V61.1758Z" fill="#FF7AAB"/>
<path d="M137.646 214.117H122.352V229.411H137.646V214.117Z" fill="#FF7AAB"/>
<path d="M229.411 122.352H214.117V137.646H229.411V122.352Z" fill="#FF7AAB"/>
<path d="M137.646 30.5898H122.352V45.884H137.646V30.5898Z" fill="#FF7AAB"/>
<path d="M45.884 122.352H30.5898V137.646H45.884V122.352Z" fill="#FF7AAB"/>
<path d="M107.06 152.941H91.7656V168.236H107.06V152.941Z" fill="#FEB8D2"/>
<path d="M107.06 91.7656H91.7656V107.06H107.06V91.7656Z" fill="#FEB8D2"/>
<path d="M137.646 107.059H122.352V122.353H137.646V107.059Z" fill="#F5E78E"/>
<path d="M152.943 122.352H137.648V137.646H152.943V122.352Z" fill="#F5E78E"/>
</g>
</g>
<defs>
<clipPath id="clip0_906_769">
<rect width="260" height="260" fill="white"/>
</clipPath>
<clipPath id="clip1_906_769">
<rect width="260" height="260" fill="white"/>
</clipPath>
</defs>
</svg>
