<svg width="197" height="205" viewBox="0 0 197 205" fill="none" xmlns="http://www.w3.org/2000/svg">
<path d="M84.9619 78.7704C85.4764 80.5072 86.5698 80.6788 87.7918 80.7217C88.1777 80.7217 89.5712 80.2928 89.9571 80.207C90.4931 80.0998 91.0934 80.1856 91.5221 80.4858C92.4869 81.1934 92.1439 82.4585 91.1362 82.8873C88.778 83.8951 85.4121 81.5579 84.9619 78.7704Z" fill="black"/>
<path d="M75.4003 63.3536C78.0372 64.104 81.3602 62.7103 84.919 60.6947C79.8381 62.7961 78.4874 60.3302 76.1077 59.5154C73.0635 58.4862 72.3345 62.5173 75.4003 63.3536Z" fill="black"/>
<path d="M40.7554 45.8783C37.1108 41.7614 34.7954 43.391 32.3085 43.0908C29.1142 42.6834 30.2075 38.738 33.3376 39.317C36.0388 39.7887 38.4185 42.5119 40.7339 45.8783H40.7554Z" fill="black"/>
<path d="M50.853 75.1467C49.8882 77.6769 52.3751 80.8074 54.1117 81.6651C60.7362 84.86 66.3746 80.0998 71.2412 76.6477C66.396 79.7782 60.0716 83.359 54.8191 80.3786C53.8544 79.8211 53.0397 78.7061 52.9111 78.02C52.7181 76.9264 53.8973 77.1623 54.2403 76.1545C54.6047 75.1467 53.64 74.0532 52.7181 73.8602C52.075 73.7315 51.2389 74.0103 50.8315 75.1253L50.853 75.1467Z" fill="black"/>
<path d="M75.5718 99.7622C73.0634 100.727 69.8905 98.2613 69.033 96.5245C65.7957 89.9203 70.5551 84.2596 73.9639 79.3708C70.8553 84.2381 67.2964 90.5636 70.2979 95.7954C70.8553 96.7603 71.9701 97.5751 72.6561 97.6823C73.7495 97.8753 73.5136 96.696 74.5213 96.3315C75.5289 95.967 76.6223 96.9319 76.8152 97.8539C76.9438 98.4757 76.6866 99.3334 75.5503 99.7622H75.5718Z" fill="black"/>
<path d="M77.3512 87.3258C78.4874 84.8171 77.6084 81.322 76.1292 77.5268C77.4584 82.8444 74.8214 83.8522 73.6637 86.0607C72.2059 88.9125 76.0649 90.2419 77.3726 87.3258H77.3512Z" fill="black"/>
<path d="M63.2874 73.3027C65.7957 72.1663 69.2902 73.0454 73.1063 74.482C67.7681 73.1526 66.8034 75.8329 64.5737 76.9907C61.7224 78.4702 60.3717 74.6107 63.2874 73.2812V73.3027Z" fill="black"/>
<path d="M60.3074 85.2888C59.0854 88.6767 61.9796 91.5713 65.367 90.3277C69.4189 88.8696 72.0987 83.745 74.7785 77.9342C71.6699 82.9516 69.1187 83.9165 66.396 84.2167C66.6962 81.515 67.6395 78.942 72.6347 75.8114C66.8677 78.5131 61.7438 81.2148 60.3074 85.2674V85.2888Z" fill="black"/>
<path d="M30.229 58.8293C31.3223 58.9151 32.2228 57.9502 31.6654 56.8781C31.4081 56.3849 30.915 56.0633 30.4005 55.9132C30.036 55.806 28.5996 55.5486 28.2566 55.3557C27.1847 54.7553 26.6487 54.2836 26.9917 52.5253C25.8555 55.3986 27.6778 58.6577 30.229 58.8293Z" fill="black"/>
<path d="M53.5114 18.4538C50.9173 19.3758 49.0092 22.4421 47.2727 26.1087C50.2098 21.4557 52.7396 22.6994 55.1621 22.0132C58.2493 21.0912 56.5342 17.3817 53.5328 18.4538H53.5114Z" fill="black"/>
<path d="M87.9204 82.63C86.5912 81.1291 86.5912 78.7275 86.9128 77.3552C87.4059 75.1896 88.9709 71.9733 89.8499 69.8934C90.4288 68.4353 91.5436 65.2619 91.908 62.9891C92.637 58.4648 90.8361 50.9815 84.1901 46.886C83.0539 46.1785 81.4888 45.235 79.1306 45.1492C76.2364 45.042 74.7357 47.8724 76.8581 49.2232C79.1306 50.6813 81.2101 48.387 82.9681 48.8158C85.7337 49.4591 89.657 55.6344 85.6694 60.8877C83.9328 63.1606 80.8886 65.0046 76.4722 65.3691C67.9182 66.0982 60.3717 62.1314 54.2832 56.3849C53.9187 55.9132 53.5542 55.4843 53.2755 55.0984C51.4318 52.6968 49.2879 48.9445 49.5881 45.3208C49.8239 42.2974 51.6033 39.7029 53.9616 39.1026C56.3198 38.5236 56.1269 41.0324 57.5847 40.775C58.9139 40.5606 58.8282 37.816 55.3551 37.8804C52.6324 37.9233 49.0092 40.239 48.5376 45.235C48.3232 47.6151 49.0092 49.7807 50.0597 51.7748C45.7934 44.5489 43.8854 32.4126 49.2665 20.9626C51.882 15.3876 56.5128 10.2415 61.4437 7.84C63.6519 6.72502 70.4479 5.33128 74.6499 9.42672C77.8014 12.4929 78.3588 19.4402 73.5565 22.3563C71.9486 23.3426 68.7328 24.4791 66.5032 22.9781C64.295 21.4557 66.2674 19.4616 66.3746 17.7034C66.5246 14.4871 62.4513 14.8945 62.4727 18.0893C62.4727 19.869 63.6947 22.6779 65.6242 24.0288C71.7986 28.3172 78.2302 23.75 79.8166 20.4908C82.0891 15.8165 80.8242 9.89844 76.6651 6.83223C74.3712 5.1383 71.5413 4.19485 68.69 4.0662C65.8172 3.95899 55.5695 4.68802 48.9878 18.1965C48.2375 13.5222 41.0769 12.2142 40.8625 21.0698C38.4185 15.4948 32.9088 9.12653 25.0622 9.40528C20.4744 5.61003 14.6216 4.77379 9.02611 7.21818C4.6955 9.0622 1.35107 13.4149 0.322012 18.218C0.171941 18.9256 0.0647476 19.6546 0.0218702 20.3622C-0.278271 25.1652 1.8656 29.3464 6.08902 32.1768C6.3034 32.3054 6.53923 32.3698 6.79649 32.3054C7.03232 32.2411 7.2467 32.091 7.37534 31.8766L7.61116 31.4692C7.82555 31.1261 7.71836 30.6758 7.37534 30.44C3.7522 28.0385 1.88704 24.5219 2.1443 20.4694C2.44444 15.7092 5.66024 10.9277 9.79791 9.12653C15.4148 6.66069 21.0747 7.92577 25.3195 12.6001C27.5277 15.0445 30.915 19.6117 34.7311 31.0189C35.996 34.7713 38.247 41.5255 42.1274 47.1219C37.2609 45.4923 32.9088 45.9212 31.108 46.543C26.5201 48.1511 24.462 52.5682 27.3133 56.8352C24.6978 50.6599 31.451 46.0069 40.2623 50.3168C45.7934 52.9113 50.6171 59.3868 55.3551 63.1177C57.8634 65.0904 65.6457 70.7296 78.3588 66.6128C77.9515 66.8272 77.6084 67.0202 77.3083 67.1703C75.679 68.0279 72.9134 70.215 72.356 72.4021C70.941 77.9556 78.1659 80.2285 83.3969 74.8251C83.7399 74.4606 84.0615 74.0317 84.3831 73.6243C83.7185 78.556 86.4626 81.9438 87.8776 82.5871L87.9204 82.63ZM46.9297 21.5629C45.7506 25.0151 44.3999 29.0248 43.9926 33.9779C43.9283 33.6777 43.864 33.3775 43.7996 33.0773C43.2208 29.8181 42.5776 26.0229 42.4061 22.4635C41.9559 12.9647 49.0521 15.2804 46.9297 21.5629ZM36.7892 30.3542C32.823 18.561 29.2642 13.7795 26.9274 11.185C26.8845 11.1421 26.8417 11.0992 26.7773 11.0563C34.0022 11.8711 38.7616 19.0113 40.1765 24.0502C41.0769 27.2237 41.6558 30.4828 42.2132 33.6348C42.6848 36.3794 43.1994 39.2098 43.9068 41.9972C44.3785 43.8198 45.1288 46.2857 46.2651 48.7729C40.8625 42.469 37.9683 33.935 36.7678 30.3542H36.7892ZM82.2606 73.753C78.1658 77.9556 72.9562 76.6262 73.921 72.8524C74.2854 71.4587 76.365 69.5503 78.0801 68.6283C80.2883 67.449 85.1334 64.876 87.6632 60.7376C87.1272 65.3477 85.2406 70.6868 82.2606 73.7315V73.753Z" fill="black"/>
<path d="M10.4411 33.5705C7.69692 33.5705 4.48112 31.7479 2.33725 28.5531C6.51779 32.5627 8.31864 29.7967 10.8055 29.668C14.0213 29.5394 13.614 33.5919 10.4196 33.5705H10.4411Z" fill="black"/>
<path d="M149.75 76.8835C149.9 73.56 146.834 74.0103 145.955 73.9245C145.269 73.8387 144.497 73.6458 144.304 72.8095C144.09 71.909 144.69 71.0513 145.783 71.0084C148.356 70.8797 150.521 73.9031 149.75 76.8835Z" fill="black"/>
<path d="M153.63 94.8305C151.422 93.2009 147.82 93.3296 143.79 93.9729C149.278 93.7799 149.685 96.5888 151.615 98.1755C154.102 100.213 156.203 96.696 153.63 94.8305Z" fill="black"/>
<path d="M185.081 128.752C182.937 127.487 180.15 128.044 178.456 122.812C179.228 126.822 180.321 130.253 182.615 131.797C185.252 133.576 187.846 130.403 185.081 128.752Z" fill="black"/>
<path d="M169.988 204.657C172.41 205.836 175.776 203.692 176.784 202.041C180.621 195.758 176.419 189.669 173.461 184.501C176.119 189.626 179.056 196.273 175.562 201.205C174.919 202.105 173.739 202.813 173.032 202.877C171.939 202.963 172.282 201.805 171.317 201.355C170.352 200.905 169.173 201.762 168.894 202.663C168.701 203.285 168.894 204.142 169.966 204.678L169.988 204.657Z" fill="black"/>
<path d="M196.893 182.464C197.601 185.059 194.835 187.975 193.034 188.64C186.152 191.213 180.964 185.938 176.441 182.057C180.986 185.638 186.924 189.776 192.434 187.31C193.442 186.86 194.363 185.831 194.556 185.145C194.835 184.073 193.656 184.201 193.399 183.15C193.141 182.121 194.192 181.135 195.135 181.028C195.778 180.963 196.593 181.306 196.915 182.464H196.893Z" fill="black"/>
<path d="M184.695 179.462C182.315 178.112 178.735 178.648 174.811 179.72C180.235 178.905 180.964 181.65 183.065 183.022C185.767 184.759 187.46 181.049 184.695 179.462Z" fill="black"/>
<path d="M169.366 192.113C168.487 189.519 169.688 186.11 171.51 182.464C169.688 187.653 172.239 188.876 173.161 191.191C174.361 194.172 170.374 195.137 169.366 192.113Z" fill="black"/>
<path d="M181.007 196.23C184.266 197.753 187.417 195.18 186.538 191.684C185.488 187.503 180.643 184.351 175.133 181.114C179.807 184.694 180.514 187.332 180.557 190.055C177.899 189.497 175.433 188.318 172.818 183.022C174.94 189.026 177.127 194.386 181.029 196.23H181.007Z" fill="black"/>
<path d="M185.445 91.2497C187.224 89.2127 186.024 85.4175 184.673 84.0023C179.592 78.6847 172.646 81.1505 166.879 82.6729C172.517 81.4507 179.678 80.3143 183.558 84.9672C184.266 85.8249 184.652 87.1543 184.502 87.8404C184.287 88.934 183.28 88.2907 182.594 89.1055C181.908 89.9203 182.422 91.2712 183.237 91.7858C183.794 92.1288 184.652 92.1717 185.466 91.2712L185.445 91.2497Z" fill="black"/>
<path d="M170.974 56.4707C173.675 56.4707 175.755 59.8799 175.948 61.8097C176.655 69.1215 170.224 72.7666 165.293 76.133C169.923 72.6809 175.476 68.0065 174.49 62.0456C174.318 60.952 173.547 59.7942 172.946 59.4297C171.981 58.8722 171.789 60.0515 170.717 60.03C169.645 60.03 168.959 58.7221 169.109 57.8001C169.216 57.1568 169.752 56.4707 170.974 56.4707Z" fill="black"/>
<path d="M162.463 67.0845C159.976 69.5932 159.461 74.2033 159.504 79.478C160.297 72.445 163.963 72.4664 166.365 70.3008C169.43 67.5133 165.378 64.1684 162.484 67.0845H162.463Z" fill="black"/>
<path d="M173.075 90.3706C169.538 90.6065 165.721 87.9691 161.777 84.4955C167.608 88.5051 169.988 85.7177 173.204 85.3317C177.32 84.8385 177.17 90.1133 173.075 90.3706Z" fill="black"/>
<path d="M182.101 77.2695C185.081 73.7315 182.915 68.9499 178.284 68.8856C172.732 68.7999 166.322 72.9596 161.326 79.5423C167.351 74.9108 170.867 74.9108 174.254 75.7685C172.689 78.8991 170.374 81.5579 162.934 83.0588C171.21 83.359 178.52 81.4936 182.101 77.248V77.2695Z" fill="black"/>
<path d="M194.321 114.965C193.334 114.514 192.134 115.093 192.284 116.273C192.348 116.83 192.691 117.302 193.12 117.623C193.42 117.859 194.685 118.588 194.942 118.889C195.736 119.832 196.057 120.454 195.114 121.998C197.172 119.703 196.636 116.015 194.299 114.943L194.321 114.965Z" fill="black"/>
<path d="M173.182 169.556C172.089 169.642 171.188 168.699 171.724 167.626C171.981 167.133 172.453 166.79 172.989 166.64C173.354 166.533 174.79 166.276 175.133 166.061C176.205 165.461 176.719 164.989 176.376 163.209C177.534 166.083 175.755 169.363 173.182 169.556Z" fill="black"/>
<path d="M148.699 72.3807C149.407 74.2461 148.57 76.4976 147.799 77.6769C146.577 79.5423 143.983 81.9867 142.418 83.6378C141.367 84.7957 139.438 86.8112 138.323 88.8482C136.436 92.3647 134.828 101.006 139.609 107.16C140.445 108.232 141.539 109.647 143.747 110.569C146.405 111.684 148.828 109.583 147.327 107.567C145.719 105.401 142.954 106.817 141.453 105.809C139.095 104.222 137.594 97.0605 143.168 93.544C145.59 92.0216 149.106 91.3569 153.351 92.5577C161.605 94.8949 167.286 101.263 170.952 108.789C171.145 109.368 171.295 109.904 171.446 110.355C172.346 113.271 173.011 117.516 171.446 120.818C170.159 123.563 167.587 125.386 165.164 125.107C162.763 124.828 163.813 122.555 162.356 122.255C161.048 121.976 160.147 124.571 163.427 125.75C166 126.651 170.202 125.771 172.389 121.269C173.439 119.103 173.547 116.809 173.268 114.514C176.612 124.271 177.148 134.734 175.905 140.566C174.704 146.206 172.925 150.902 170.609 154.675C162.72 166.34 149.407 168.72 139.652 163.467C126.017 156.091 125.867 138.658 136.243 131.689C142.739 127.358 151.465 128.709 155.967 135.077C158.368 138.465 159.118 142.239 158.003 146.549C157.961 146.699 158.046 146.828 158.175 146.892C158.304 146.935 158.475 146.892 158.518 146.742C160.705 141.789 159.997 135.42 157.124 131.368C152.108 124.271 142.225 122.298 135.128 127.337C120.507 137.65 125.481 165.997 145.976 169.792C149.964 170.543 158.775 170.006 162.591 166.64C162.656 166.597 162.763 166.554 162.827 166.49C161.777 171.872 163.599 177.297 166.279 179.913C168.809 182.379 171.66 182.657 173.396 181.843C175.047 181.071 175.926 179.076 174.769 176.718C181.2 178.862 189.668 176.075 192.756 168.591C193.635 166.469 193.935 164.281 193.72 162.159C193.442 159.5 192.305 156.97 190.397 154.847C188.854 153.153 185.338 151.073 183.923 153.089C182.679 154.825 184.759 155.683 186.453 156.369C188.575 157.206 191.191 158.213 191.919 160.744C192.541 163.102 192.37 165.611 191.362 168.034C187.353 177.747 173.89 177.961 170.073 171.229C168.53 168.849 167.737 165.632 168.037 163.038C173.354 160.551 176.848 163.209 176.183 167.24C177.984 162.738 174.383 158.749 169.152 159.8C169.859 158.578 170.867 157.313 172.132 155.061C174.383 151.223 176.141 146.506 177.32 140.91C178.092 137.264 178.284 132.483 177.727 127.315C177.363 123.949 176.677 120.39 175.669 116.894C176.784 118.653 178.027 120.282 179.549 121.697C188.103 129.76 198.137 125.836 196.25 117.816C196.529 124.528 189.604 126.629 182.872 119.489C178.606 115.136 177.213 108.918 174.082 103.772C172.41 101.027 166 90.4135 151.915 90.7137C152.365 90.6493 152.772 90.6065 153.094 90.5636C154.916 90.3277 158.282 89.2556 159.59 87.4116C162.849 82.7372 156.91 78.0414 150.093 81.2577C149.621 81.4721 149.192 81.7723 148.742 82.0511C151.1 77.6769 150.028 73.7315 148.613 72.4236L148.699 72.3807ZM169.495 173.094C172.367 176.203 173.589 176.461 173.761 178.605C173.911 179.741 173.268 180.17 172.753 180.406C171.574 180.963 169.409 180.685 167.458 178.776C164.671 176.053 163.17 170.049 164.907 165.096C165.507 164.667 166.022 164.281 166.472 163.96C166.365 169.32 169.387 172.88 169.495 173.094ZM158.346 86.4467C157.51 87.626 154.895 88.6767 152.965 88.934C150.5 89.2556 145.033 89.9632 141.238 92.9436C143.361 88.8053 147.005 84.4955 150.864 82.6729C156.181 80.1642 160.576 83.2518 158.346 86.4467Z" fill="black"/>
<path d="M159.311 144.641C157.66 147.814 154.68 147.299 154.316 147.364C153.78 147.428 153.244 147.664 152.901 148.114C152.172 149.058 152.901 150.173 153.994 150.28C156.546 150.537 158.818 147.299 159.333 144.662L159.311 144.641Z" fill="black"/>
<path d="M145.055 83.1446C150.521 82.6086 153.03 79.1135 153.223 78.9634C153.308 78.7704 155.431 76.6262 155.795 72.8095C156.053 70.3437 155.431 67.9851 154.337 66.141C153.244 64.2756 151.636 62.989 150.071 62.3243C147.198 61.0378 143.961 60.9306 142.203 62.4744C144.068 61.5953 147.113 61.917 149.621 63.2678C150.972 63.9754 152.279 65.1761 153.158 66.8272C156.331 72.7666 151.851 77.6126 151.765 77.8055C151.572 77.9556 149.449 80.786 144.862 81.1719C142.46 81.3864 139.952 80.8289 137.787 79.6281C135.621 78.4702 133.778 76.6691 132.427 74.5892C129.404 70.0006 128.032 63.2249 128.59 57.0925C129.726 44.4845 137.53 35.0071 144.862 30.9117C142.932 32.1124 141.238 33.6134 140.231 35.779C138.108 40.3248 140.081 44.1415 142.396 45.5566C145.355 47.3792 146.834 45.0635 145.783 44.2058C144.647 43.2623 143.554 45.5137 141.817 43.8198C140.081 42.1045 139.888 38.9739 141.196 36.2508C142.782 32.9701 146.512 30.8259 149.342 29.6895C149.792 29.518 150.307 29.3035 150.864 29.0891C159.033 27.2022 167.544 27.6311 174.554 32.5627C178.156 35.1143 179.849 38.2449 180.214 41.161C180.986 47.6365 174.468 50.9815 171.746 50.1238C170.009 49.5877 169.366 46.543 166.686 46.6716C164.178 46.7788 164.049 49.9737 166.6 51.346C168.68 52.4824 170.502 52.4395 171.853 52.4181C179.657 52.2466 184.995 46.6931 186.667 42.4475C187.503 40.2819 188.168 36.9798 188.382 35.436C188.682 33.206 188.961 29.6252 189.647 27.5024C190.076 26.1515 191.298 24.0931 193.206 23.4713C191.662 23.2997 187.589 24.8436 185.659 29.4322C185.595 28.9176 185.531 28.3815 185.424 27.8884C183.623 20.5766 176.248 18.8827 174.661 24.3933C174.04 26.5589 175.326 29.861 176.291 31.4263C176.462 31.7265 176.677 32.0696 176.912 32.4555C168.037 22.4635 158.475 23.407 155.324 23.8358C149.342 24.6292 141.903 27.8026 135.836 27.2236C126.038 26.4732 122.565 19.0542 127.968 15.0445C123.337 17.2745 122.887 22.1204 126.017 25.8514C127.239 27.3094 130.776 29.8825 135.814 30.9331C129.64 33.8064 124.28 38.4807 121.279 41.0967C112.21 48.9874 106.979 51.2173 103.849 52.2037C97.8251 54.0906 92.3154 52.3109 88.7137 47.3578C86.0553 43.7126 85.7123 37.9661 87.8561 33.6992C89.6784 30.0754 91.908 28.1028 98.1253 26.9878C93.6446 25.8728 88.4778 27.5024 85.1334 32.1982C81.6603 37.087 82.2178 45.042 86.1196 49.695C90.0643 54.3908 96.0243 55.8274 101.92 54.8625C108.544 59.0651 116.52 56.3634 121.451 52.8041C117.163 60.5447 124.002 63.0534 127.025 59.3868C125.845 74.3748 134.335 80.1856 136.865 81.5579C139.395 82.9088 142.31 83.5306 145.14 83.2304L145.055 83.1446ZM177.641 30.5686C176.612 28.8961 175.798 26.1944 176.183 24.8221C177.255 21.0912 182.444 22.5707 183.837 28.2743C184.845 32.4126 183.794 37.9661 181.908 42.2117C181.822 37.3872 178.949 32.6914 177.641 30.5686ZM104.257 54.2407C104.257 54.2407 104.385 54.2407 104.45 54.1978C107.773 53.1471 113.282 50.8314 122.651 42.662C125.502 40.1747 132.32 34.2781 140.167 31.5764C137.937 33.1417 136.029 34.8785 134.7 36.2293C132.663 38.2878 130.798 40.4534 129.018 42.5762C126.939 44.9991 124.795 47.5293 122.415 49.8236C118.621 53.4688 110.903 57.1997 104.278 54.2407H104.257ZM123.509 52.3323C125.46 49.3304 127.925 46.3929 130.09 43.8842C130.283 43.6483 130.498 43.4339 130.712 43.198C128.547 47.6794 127.689 51.8177 126.96 55.3986C125.61 61.8955 118.32 60.3088 123.53 52.3323H123.509Z" fill="black"/>
<path d="M188.682 25.2939C190.011 24.0502 191.04 24.4576 192.091 25.0366C192.434 25.2295 193.42 26.3231 193.699 26.5589C194.106 26.9235 194.664 27.1593 195.2 27.1164C196.4 27.0092 196.722 25.7227 196.079 24.865C194.556 22.8066 190.462 23.1068 188.661 25.2939H188.682Z" fill="black"/>
<path d="M172.646 33.742C175.304 34.4282 177.47 37.3229 179.506 40.8608C176.205 36.4866 173.761 37.9232 171.317 37.4086C168.165 36.7439 169.58 32.9058 172.646 33.742Z" fill="black"/>
<path d="M133.928 31.2762C128.697 32.9701 127.539 30.3971 125.245 29.4107C122.287 28.1457 121.236 32.091 124.238 33.1846C126.81 34.128 130.24 33.013 133.928 31.2762Z" fill="black"/>
<path d="M157.446 11.1635C157.896 8.50471 161.627 7.04665 163.556 7.19674C170.888 7.79712 173.354 14.7658 175.798 20.1906C173.203 15.0231 169.559 8.74057 163.535 8.6548C162.441 8.6548 161.155 9.19086 160.705 9.72691C159.997 10.5846 161.134 10.9705 160.919 11.9998C160.726 13.0504 159.333 13.5007 158.454 13.2005C157.832 12.9861 157.253 12.3214 157.467 11.1421L157.446 11.1635Z" fill="black"/>
<path d="M191.212 2.4366C189.518 0.335274 185.552 0.849884 183.944 1.92199C177.813 5.97454 179.035 13.2649 179.506 19.2258C179.271 13.4578 179.421 6.18896 184.673 3.20851C185.638 2.67246 187.01 2.52237 187.675 2.75823C188.704 3.14419 187.932 4.04475 188.596 4.85955C189.283 5.67435 190.719 5.39561 191.341 4.70946C191.769 4.23773 191.962 3.38005 191.212 2.4366Z" fill="black"/>
<path d="M186.474 14.0582C186.174 16.7814 183.644 19.3544 180.45 21.906C184.309 17.9821 182.508 15.795 182.637 13.2863C182.808 10.0914 186.839 10.9062 186.474 14.0582Z" fill="black"/>
<path d="M167.222 19.0328C168.809 21.2627 172.26 22.292 176.291 22.9781C171.017 21.4128 171.531 18.6254 170.224 16.5026C168.508 13.7795 165.4 16.4383 167.222 19.0328Z" fill="black"/>
<path d="M170.738 7.19674C171.403 3.6588 175.369 2.62958 177.663 5.41705C180.428 8.74057 180.128 14.5085 179.506 20.8768C179.356 14.9802 177.641 12.8575 175.455 11.2279C174.34 13.7151 173.868 16.3954 176.591 21.6273C172.989 16.374 169.945 11.4423 170.738 7.21818V7.19674Z" fill="black"/>
<path d="M131.398 14.7872C132.363 15.259 132.684 16.5669 131.655 17.1888C131.184 17.4675 130.605 17.5318 130.069 17.3817C129.704 17.296 128.332 16.7814 127.925 16.7814C126.703 16.7599 125.996 16.8886 125.395 18.6039C125.888 15.5592 129.083 13.6508 131.377 14.7872H131.398Z" fill="black"/>
<path d="M131.034 61.4023C129.254 59.301 129.168 55.6987 129.533 51.6247C129.704 57.1139 132.534 57.3283 134.249 59.1509C136.436 61.5095 133.092 63.8253 131.034 61.4023Z" fill="black"/>
<path d="M103.292 29.2606C101.448 27.2237 97.9323 26.0443 94.1591 26.6018C99.9475 27.0307 99.0686 30.2255 100.655 32.1553C102.713 34.6426 105.436 31.6193 103.292 29.2606Z" fill="black"/>
<path d="M109.252 75.7471C111.632 74.9537 113.004 72.4879 118.063 74.6321C114.526 72.5951 111.203 71.1799 108.566 71.8875C105.5 72.7238 106.186 76.7549 109.252 75.7471Z" fill="black"/>
<path d="M120.271 88.1621C121.665 85.8034 121.15 82.2226 120.121 78.2773C120.872 83.7235 118.128 84.4097 116.734 86.4896C114.955 89.1698 118.663 90.9066 120.271 88.1621Z" fill="black"/>
<path d="M142.653 107.331C137.229 104.394 137.465 99.0975 137.722 93.5011C137.873 90.0918 137.98 87.433 136.844 83.5734C135.836 80.1427 132.127 76.6262 130.262 75.597C124.731 72.5308 117.87 74.482 116.991 74.7608C115.126 75.3611 113.411 76.2403 111.76 77.0765C110.881 77.5268 109.981 77.9985 109.059 78.4059C107.773 78.9848 105.736 79.864 102.863 79.7568C100.312 79.671 98.3182 77.441 98.1681 76.7549C97.9323 75.6828 99.1329 75.8543 99.433 74.8465C99.7546 73.8173 98.747 72.7881 97.8037 72.6165C97.1605 72.5093 96.3244 72.8095 95.9599 73.9674C95.4669 75.4469 96.1315 77.0979 97.1176 78.363C97.8466 79.285 99.5402 81.1934 102.842 81.3649C106.379 81.5579 108.887 80.2285 109.702 79.864C110.645 79.4351 111.567 78.9634 112.468 78.4917C114.119 77.634 115.684 76.8192 117.441 76.2831C117.977 76.1116 121.065 75.211 124.516 75.5327C120.657 75.8543 117.849 77.2266 115.405 81.2577C114.74 82.3513 113.325 85.1173 113.325 88.5051C113.325 90.7566 114.44 94.0586 115.598 95.6025C116.97 97.4036 119.65 98.4114 121.601 97.5751C122.715 97.1034 122.93 96.2457 122.78 95.6239C122.544 94.7019 121.429 93.7799 120.443 94.1873C119.457 94.5732 119.735 95.7525 118.642 95.6025C115.984 95.2594 112.875 88.548 116.841 81.9653C121.193 74.7179 131.87 75.5112 135.3 84.1738C136.372 86.8541 136.222 90.049 136.05 93.4368C135.793 99.2905 136.672 105.23 142.589 107.331H142.653Z" fill="black"/>
<path d="M107.987 90.2634C112.082 88.934 113.454 85.5247 116.348 79.8211C113.047 84.7099 110.474 85.589 107.751 85.782C108.137 83.0803 109.166 80.5716 114.29 77.6125C108.416 80.0998 104.685 81.0218 103.099 85.0315C101.77 88.3765 104.557 91.3569 107.987 90.2634Z" fill="black"/>
<path d="M141.474 166.597C139.416 165.589 137.015 164.367 136.372 163.724C130.626 158.707 124.452 148.393 125.117 137.436C125.224 135.528 125.395 133.512 126.124 131.818C126.875 130.038 127.882 128.559 128.954 127.272C133.799 121.504 141.067 120.411 146.963 122.319C149.664 123.198 152.215 124.742 154.23 126.908C155.817 128.602 160.319 133.791 158.947 144.962C159.869 142.818 160.062 140.845 160.147 138.851C160.362 133.512 158.497 129.138 155.559 125.943C153.33 123.499 150.457 121.762 147.456 120.775C140.745 118.61 132.749 120.154 127.539 126.458C126.339 127.916 125.288 129.61 124.388 131.668C121.965 126.222 114.826 128.323 117.356 136.428C113.004 131.668 105.114 127.144 97.332 131.003C97.182 131.068 97.0962 131.196 97.0533 131.346C97.0104 131.475 97.0104 131.647 97.0962 131.775L97.3963 132.333C97.5035 132.526 97.7608 132.611 97.9537 132.504C106.036 128.43 114.376 134.584 117.763 139.516C123.573 147.943 126.017 158.449 136.436 165.203C137.937 166.19 139.566 166.79 141.367 167.369C143.468 168.034 142.954 167.305 141.517 166.597H141.474ZM119.35 137.286C115.876 128.43 123.337 128.366 123.337 134.992C123.337 138.637 123.337 142.882 124.559 147.685C123.594 146.141 120.743 140.867 119.35 137.286Z" fill="black"/>
<path d="M98.6398 118.224C99.09 115.565 102.82 114.107 104.75 114.257C112.082 114.836 114.547 121.826 117.013 127.251C114.419 122.083 110.774 115.822 104.728 115.737C103.635 115.737 102.349 116.273 101.898 116.809C101.191 117.666 102.327 118.052 102.113 119.103C101.92 120.154 100.526 120.604 99.626 120.282C99.0042 120.068 98.4254 119.425 98.6398 118.224Z" fill="black"/>
<path d="M132.406 109.475C130.712 107.374 126.746 107.91 125.138 108.982C119.007 113.035 120.229 120.325 120.722 126.286C120.486 120.518 120.636 113.249 125.867 110.269C126.832 109.733 128.204 109.583 128.868 109.819C129.897 110.226 129.104 111.105 129.79 111.92C130.476 112.735 131.913 112.456 132.556 111.748C132.985 111.255 133.177 110.419 132.427 109.475H132.406Z" fill="black"/>
<path d="M127.668 121.119C127.368 123.842 124.838 126.415 121.643 128.966C125.481 125.042 123.702 122.855 123.83 120.347C124.023 117.13 128.011 117.945 127.668 121.119Z" fill="black"/>
<path d="M108.437 126.093C110.024 128.345 113.497 129.352 117.506 130.038C112.232 128.473 112.746 125.686 111.417 123.563C109.702 120.84 106.594 123.499 108.437 126.093Z" fill="black"/>
<path d="M111.932 114.236C112.596 110.698 116.563 109.69 118.856 112.456C121.622 115.758 121.322 121.547 120.722 127.894C120.572 121.998 118.856 119.875 116.67 118.245C115.555 120.733 115.083 123.413 117.806 128.645C114.183 123.37 111.139 118.46 111.932 114.236Z" fill="black"/>
<path d="M93.5159 133.04C95.2953 130.96 99.433 129.481 102.52 129.631C97.1391 130.682 97.7394 133.877 96.2172 135.871C94.2449 138.422 91.4149 135.463 93.4945 133.062L93.5159 133.04Z" fill="black"/>
</svg>
