<svg width="720" height="720" viewBox="0 0 720 720" fill="none" xmlns="http://www.w3.org/2000/svg">
<g clip-path="url(#clip0_906_663)">
<path d="M381.177 338.824H338.824V381.177H381.177V338.824Z" fill="#F5E78E"/>
<path d="M338.824 338.824H296.471V381.177H338.824V338.824Z" fill="#F5E78E"/>
<path d="M381.177 381.176H338.824V423.529H381.177V381.176Z" fill="#F5E78E"/>
<path d="M423.529 381.176H381.176V423.529H423.529V381.176Z" fill="#FEB8D2"/>
<path d="M423.529 296.471H381.176V338.824H423.529V296.471Z" fill="#FEB8D2"/>
<path d="M338.824 381.176H296.471V423.529H338.824V381.176Z" fill="#FEB8D2"/>
<path d="M338.824 296.471H296.471V338.824H338.824V296.471Z" fill="#FEB8D2"/>
<path d="M465.882 254.117H423.529V296.47H465.882V254.117Z" fill="#FEB8D2"/>
<path d="M465.882 423.529H423.529V465.882H465.882V423.529Z" fill="#FEB8D2"/>
<path d="M508.236 465.883H465.883V508.236H508.236V465.883Z" fill="#FEB8D2"/>
<path d="M508.236 211.766H465.883V254.119H508.236V211.766Z" fill="#FEB8D2"/>
<path d="M254.119 211.766H211.766V254.119H254.119V211.766Z" fill="#FEB8D2"/>
<path d="M254.119 169.412H211.766V211.765H254.119V169.412Z" fill="white"/>
<path d="M254.119 127.059H211.766V169.412H254.119V127.059Z" fill="white"/>
<path d="M254.119 84.7051H211.766V127.058H254.119V84.7051Z" fill="white"/>
<path d="M296.47 211.766H254.117V254.119H296.47V211.766Z" fill="white"/>
<path d="M338.824 211.766H296.471V254.119H338.824V211.766Z" fill="white"/>
<path d="M338.824 169.412H296.471V211.765H338.824V169.412Z" fill="white"/>
<path d="M296.47 169.412H254.117V211.765H296.47V169.412Z" fill="white"/>
<path d="M296.47 127.059H254.117V169.412H296.47V127.059Z" fill="white"/>
<path d="M296.47 84.7051H254.117V127.058H296.47V84.7051Z" fill="white"/>
<path d="M296.47 42.3535H254.117V84.7065H296.47V42.3535Z" fill="white"/>
<path d="M338.824 42.3535H296.471V84.7065H338.824V42.3535Z" fill="white"/>
<path d="M338.824 84.7051H296.471V127.058H338.824V84.7051Z" fill="white"/>
<path d="M338.824 127.059H296.471V169.412H338.824V127.059Z" fill="white"/>
<path d="M381.177 127.059H338.824V169.412H381.177V127.059Z" fill="white"/>
<path d="M423.529 42.3535H381.176V84.7065H423.529V42.3535Z" fill="white"/>
<path d="M465.882 42.3535H423.529V84.7065H465.882V42.3535Z" fill="white"/>
<path d="M423.529 84.7051H381.176V127.058H423.529V84.7051Z" fill="white"/>
<path d="M465.882 84.7051H423.529V127.058H465.882V84.7051Z" fill="white"/>
<path d="M508.236 84.7051H465.883V127.058H508.236V84.7051Z" fill="white"/>
<path d="M423.529 127.059H381.176V169.412H423.529V127.059Z" fill="white"/>
<path d="M465.882 127.059H423.529V169.412H465.882V127.059Z" fill="white"/>
<path d="M508.236 127.059H465.883V169.412H508.236V127.059Z" fill="white"/>
<path d="M508.236 169.412H465.883V211.765H508.236V169.412Z" fill="white"/>
<path d="M465.882 169.412H423.529V211.765H465.882V169.412Z" fill="white"/>
<path d="M423.529 169.412H381.176V211.765H423.529V169.412Z" fill="white"/>
<path d="M465.882 211.766H423.529V254.119H465.882V211.766Z" fill="white"/>
<path d="M423.529 211.766H381.176V254.119H423.529V211.766Z" fill="white"/>
<path d="M127.058 211.766H84.7051V254.119H127.058V211.766Z" fill="white"/>
<path d="M254.119 296.471H211.766V338.824H254.119V296.471Z" fill="white"/>
<path d="M254.119 254.117H211.766V296.47H254.119V254.117Z" fill="white"/>
<path d="M211.765 211.766H169.412V254.119H211.765V211.766Z" fill="white"/>
<path d="M169.412 211.766H127.059V254.119H169.412V211.766Z" fill="white"/>
<path d="M254.119 423.529H211.766V465.882H254.119V423.529Z" fill="white"/>
<path d="M254.119 381.176H211.766V423.529H254.119V381.176Z" fill="white"/>
<path d="M211.765 254.117H169.412V296.47H211.765V254.117Z" fill="white"/>
<path d="M169.412 254.117H127.059V296.47H169.412V254.117Z" fill="white"/>
<path d="M127.058 254.117H84.7051V296.47H127.058V254.117Z" fill="white"/>
<path d="M84.7065 254.117H42.3535V296.47H84.7065V254.117Z" fill="white"/>
<path d="M84.7065 296.471H42.3535V338.824H84.7065V296.471Z" fill="white"/>
<path d="M127.058 296.471H84.7051V338.824H127.058V296.471Z" fill="white"/>
<path d="M169.412 296.471H127.059V338.824H169.412V296.471Z" fill="white"/>
<path d="M211.765 296.471H169.412V338.824H211.765V296.471Z" fill="white"/>
<path d="M169.412 338.824H127.059V381.177H169.412V338.824Z" fill="white"/>
<path d="M211.765 381.176H169.412V423.529H211.765V381.176Z" fill="white"/>
<path d="M211.765 423.529H169.412V465.882H211.765V423.529Z" fill="white"/>
<path d="M211.765 465.883H169.412V508.236H211.765V465.883Z" fill="white"/>
<path d="M296.47 465.883H254.117V508.236H296.47V465.883Z" fill="white"/>
<path d="M338.824 465.883H296.471V508.236H338.824V465.883Z" fill="white"/>
<path d="M338.824 508.234H296.471V550.587H338.824V508.234Z" fill="white"/>
<path d="M254.119 508.234H211.766V550.587H254.119V508.234Z" fill="white"/>
<path d="M296.47 508.234H254.117V550.587H296.47V508.234Z" fill="white"/>
<path d="M254.119 550.588H211.766V592.941H254.119V550.588Z" fill="white"/>
<path d="M254.119 592.941H211.766V635.294H254.119V592.941Z" fill="white"/>
<path d="M296.47 635.295H254.117V677.648H296.47V635.295Z" fill="white"/>
<path d="M296.47 550.588H254.117V592.941H296.47V550.588Z" fill="white"/>
<path d="M296.47 592.941H254.117V635.294H296.47V592.941Z" fill="white"/>
<path d="M338.824 550.588H296.471V592.941H338.824V550.588Z" fill="white"/>
<path d="M338.824 592.941H296.471V635.294H338.824V592.941Z" fill="white"/>
<path d="M338.824 635.295H296.471V677.648H338.824V635.295Z" fill="white"/>
<path d="M381.177 550.588H338.824V592.941H381.177V550.588Z" fill="white"/>
<path d="M423.529 465.883H381.176V508.236H423.529V465.883Z" fill="white"/>
<path d="M465.882 465.883H423.529V508.236H465.882V465.883Z" fill="white"/>
<path d="M423.529 508.234H381.176V550.587H423.529V508.234Z" fill="white"/>
<path d="M465.882 508.234H423.529V550.587H465.882V508.234Z" fill="white"/>
<path d="M508.236 508.234H465.883V550.587H508.236V508.234Z" fill="white"/>
<path d="M423.529 550.588H381.176V592.941H423.529V550.588Z" fill="white"/>
<path d="M465.882 550.588H423.529V592.941H465.882V550.588Z" fill="white"/>
<path d="M508.236 550.588H465.883V592.941H508.236V550.588Z" fill="white"/>
<path d="M508.236 592.941H465.883V635.294H508.236V592.941Z" fill="white"/>
<path d="M465.882 592.941H423.529V635.294H465.882V592.941Z" fill="white"/>
<path d="M423.529 592.941H381.176V635.294H423.529V592.941Z" fill="white"/>
<path d="M465.882 635.295H423.529V677.648H465.882V635.295Z" fill="white"/>
<path d="M423.529 635.295H381.176V677.648H423.529V635.295Z" fill="white"/>
<path d="M508.236 381.176H465.883V423.529H508.236V381.176Z" fill="white"/>
<path d="M508.236 423.529H465.883V465.882H508.236V423.529Z" fill="white"/>
<path d="M592.941 338.824H550.588V381.177H592.941V338.824Z" fill="white"/>
<path d="M550.587 381.176H508.234V423.529H550.587V381.176Z" fill="white"/>
<path d="M592.941 381.176H550.588V423.529H592.941V381.176Z" fill="white"/>
<path d="M635.294 381.176H592.941V423.529H635.294V381.176Z" fill="white"/>
<path d="M677.648 381.176H635.295V423.529H677.648V381.176Z" fill="white"/>
<path d="M550.587 423.529H508.234V465.882H550.587V423.529Z" fill="white"/>
<path d="M592.941 423.529H550.588V465.882H592.941V423.529Z" fill="white"/>
<path d="M635.294 423.529H592.941V465.882H635.294V423.529Z" fill="white"/>
<path d="M677.648 423.529H635.295V465.882H677.648V423.529Z" fill="white"/>
<path d="M550.587 465.883H508.234V508.236H550.587V465.883Z" fill="white"/>
<path d="M592.941 465.883H550.588V508.236H592.941V465.883Z" fill="white"/>
<path d="M635.294 465.883H592.941V508.236H635.294V465.883Z" fill="white"/>
<path d="M508.236 296.471H465.883V338.824H508.236V296.471Z" fill="white"/>
<path d="M550.587 296.471H508.234V338.824H550.587V296.471Z" fill="white"/>
<path d="M508.236 254.117H465.883V296.47H508.236V254.117Z" fill="white"/>
<path d="M550.587 211.766H508.234V254.119H550.587V211.766Z" fill="white"/>
<path d="M550.587 254.117H508.234V296.47H550.587V254.117Z" fill="white"/>
<path d="M592.941 211.766H550.588V254.119H592.941V211.766Z" fill="white"/>
<path d="M635.294 211.766H592.941V254.119H635.294V211.766Z" fill="white"/>
<path d="M592.941 254.117H550.588V296.47H592.941V254.117Z" fill="white"/>
<path d="M635.294 254.117H592.941V296.47H635.294V254.117Z" fill="white"/>
<path d="M677.648 254.117H635.295V296.47H677.648V254.117Z" fill="white"/>
<path d="M677.648 296.471H635.295V338.824H677.648V296.471Z" fill="white"/>
<path d="M635.294 296.471H592.941V338.824H635.294V296.471Z" fill="white"/>
<path d="M592.941 296.471H550.588V338.824H592.941V296.471Z" fill="white"/>
<path d="M508.236 381.176H465.883V423.529H508.236V381.176Z" fill="white"/>
<path d="M169.412 381.176H127.059V423.529H169.412V381.176Z" fill="white"/>
<path d="M127.058 381.176H84.7051V423.529H127.058V381.176Z" fill="white"/>
<path d="M84.7065 381.176H42.3535V423.529H84.7065V381.176Z" fill="white"/>
<path d="M84.7065 423.529H42.3535V465.882H84.7065V423.529Z" fill="white"/>
<path d="M127.058 423.529H84.7051V465.882H127.058V423.529Z" fill="white"/>
<path d="M169.412 423.529H127.059V465.882H169.412V423.529Z" fill="white"/>
<path d="M127.058 465.883H84.7051V508.236H127.058V465.883Z" fill="white"/>
<path d="M169.412 465.883H127.059V508.236H169.412V465.883Z" fill="white"/>
<path d="M254.119 465.883H211.766V508.236H254.119V465.883Z" fill="#FEB8D2"/>
<path d="M550.587 508.234H508.234V550.587H550.587V508.234Z" fill="#FEB8D2"/>
<path d="M592.941 508.234H550.588V550.587H592.941V508.234Z" fill="#FEB8D2"/>
<path d="M635.294 508.234H592.941V550.587H635.294V508.234Z" fill="#FEB8D2"/>
<path d="M550.587 550.588H508.234V592.941H550.587V550.588Z" fill="#FEB8D2"/>
<path d="M550.587 592.941H508.234V635.294H550.587V592.941Z" fill="#FEB8D2"/>
<path d="M550.587 169.412H508.234V211.765H550.587V169.412Z" fill="#FEB8D2"/>
<path d="M592.941 169.412H550.588V211.765H592.941V169.412Z" fill="#FEB8D2"/>
<path d="M635.294 169.412H592.941V211.765H635.294V169.412Z" fill="#FEB8D2"/>
<path d="M550.587 127.059H508.234V169.412H550.587V127.059Z" fill="#FEB8D2"/>
<path d="M550.587 84.7051H508.234V127.058H550.587V84.7051Z" fill="#FEB8D2"/>
<path d="M211.765 169.412H169.412V211.765H211.765V169.412Z" fill="#FEB8D2"/>
<path d="M211.765 127.059H169.412V169.412H211.765V127.059Z" fill="#FEB8D2"/>
<path d="M211.765 84.7051H169.412V127.058H211.765V84.7051Z" fill="#FEB8D2"/>
<path d="M169.412 169.412H127.059V211.765H169.412V169.412Z" fill="#FEB8D2"/>
<path d="M127.058 169.412H84.7051V211.765H127.058V169.412Z" fill="#FEB8D2"/>
<path d="M211.765 508.234H169.412V550.587H211.765V508.234Z" fill="#FEB8D2"/>
<path d="M211.765 550.588H169.412V592.941H211.765V550.588Z" fill="#FEB8D2"/>
<path d="M211.765 592.941H169.412V635.294H211.765V592.941Z" fill="#FEB8D2"/>
<path d="M169.412 508.234H127.059V550.587H169.412V508.234Z" fill="#FEB8D2"/>
<path d="M127.058 508.234H84.7051V550.587H127.058V508.234Z" fill="#FEB8D2"/>
<path d="M84.7065 465.883H42.3535V508.236H84.7065V465.883Z" fill="#FEB8D2"/>
<path d="M254.119 635.295H211.766V677.648H254.119V635.295Z" fill="#FEB8D2"/>
<path d="M508.236 635.295H465.883V677.648H508.236V635.295Z" fill="#FEB8D2"/>
<path d="M677.648 465.883H635.295V508.236H677.648V465.883Z" fill="#FEB8D2"/>
<path d="M677.648 211.766H635.295V254.119H677.648V211.766Z" fill="#FEB8D2"/>
<path d="M508.236 42.3535H465.883V84.7065H508.236V42.3535Z" fill="#FEB8D2"/>
<path d="M254.119 42.3535H211.766V84.7065H254.119V42.3535Z" fill="#FEB8D2"/>
<path d="M84.7065 211.766H42.3535V254.119H84.7065V211.766Z" fill="#FEB8D2"/>
<path d="M592.941 550.588H550.588V592.941H592.941V550.588Z" fill="#619D29"/>
<path d="M635.294 550.588H592.941V592.941H635.294V550.588Z" fill="#B5E48A"/>
<path d="M635.294 127.059H592.941V169.412H635.294V127.059Z" fill="#B5E48A"/>
<path d="M592.941 84.7051H550.588V127.058H592.941V84.7051Z" fill="#B5E48A"/>
<path d="M635.294 84.7051H592.941V127.058H635.294V84.7051Z" fill="#B5E48A"/>
<path d="M127.058 550.588H84.7051V592.941H127.058V550.588Z" fill="#B5E48A"/>
<path d="M127.058 592.941H84.7051V635.294H127.058V592.941Z" fill="#B5E48A"/>
<path d="M169.412 592.941H127.059V635.294H169.412V592.941Z" fill="#B5E48A"/>
<path d="M127.058 127.059H84.7051V169.412H127.058V127.059Z" fill="#B5E48A"/>
<path d="M127.058 84.7051H84.7051V127.058H127.058V84.7051Z" fill="#B5E48A"/>
<path d="M169.412 84.7051H127.059V127.058H169.412V84.7051Z" fill="#B5E48A"/>
<path d="M635.294 592.941H592.941V635.294H635.294V592.941Z" fill="#B5E48A"/>
<path d="M592.941 592.941H550.588V635.294H592.941V592.941Z" fill="#B5E48A"/>
<path d="M592.941 127.059H550.588V169.412H592.941V127.059Z" fill="#619D29"/>
<path d="M169.412 550.588H127.059V592.941H169.412V550.588Z" fill="#619D29"/>
<path d="M169.412 127.059H127.059V169.412H169.412V127.059Z" fill="#619D29"/>
<path d="M677.648 338.824H635.295V381.177H677.648V338.824Z" fill="#FEB8D2"/>
<path d="M381.177 635.295H338.824V677.648H381.177V635.295Z" fill="#FEB8D2"/>
<path d="M381.177 42.3535H338.824V84.7065H381.177V42.3535Z" fill="#FEB8D2"/>
<path d="M84.7065 338.824H42.3535V381.177H84.7065V338.824Z" fill="#FEB8D2"/>
<path d="M719.999 381.176H677.646V423.529H719.999V381.176Z" fill="#FEB8D2"/>
<path d="M719.999 423.529H677.646V465.882H719.999V423.529Z" fill="#FEB8D2"/>
<path d="M719.999 296.471H677.646V338.824H719.999V296.471Z" fill="#FEB8D2"/>
<path d="M719.999 254.117H677.646V296.47H719.999V254.117Z" fill="#FEB8D2"/>
<path d="M423.529 0H381.176V42.3529H423.529V0Z" fill="#FEB8D2"/>
<path d="M465.882 0H423.529V42.3529H465.882V0Z" fill="#FEB8D2"/>
<path d="M338.824 0H296.471V42.3529H338.824V0Z" fill="#FEB8D2"/>
<path d="M296.47 0H254.117V42.3529H296.47V0Z" fill="#FEB8D2"/>
<path d="M42.3529 296.471H0V338.824H42.3529V296.471Z" fill="#FEB8D2"/>
<path d="M42.3529 254.117H0V296.47H42.3529V254.117Z" fill="#FEB8D2"/>
<path d="M42.3529 381.176H0V423.529H42.3529V381.176Z" fill="#FEB8D2"/>
<path d="M42.3529 423.529H0V465.882H42.3529V423.529Z" fill="#FEB8D2"/>
<path d="M423.529 677.646H381.176V719.999H423.529V677.646Z" fill="#FEB8D2"/>
<path d="M465.882 677.646H423.529V719.999H465.882V677.646Z" fill="#FEB8D2"/>
<path d="M338.824 677.646H296.471V719.999H338.824V677.646Z" fill="#FEB8D2"/>
<path d="M296.47 677.646H254.117V719.999H296.47V677.646Z" fill="#FEB8D2"/>
<path d="M423.529 423.529H381.176V465.882H423.529V423.529Z" fill="#FF7AAB"/>
<path d="M338.824 423.529H296.471V465.882H338.824V423.529Z" fill="#FF7AAB"/>
<path d="M381.177 423.529H338.824V465.882H381.177V423.529Z" fill="#FF7AAB"/>
<path d="M465.882 381.176H423.529V423.529H465.882V381.176Z" fill="#FF7AAB"/>
<path d="M465.882 338.824H423.529V381.177H465.882V338.824Z" fill="#FF7AAB"/>
<path d="M465.882 296.471H423.529V338.824H465.882V296.471Z" fill="#FF7AAB"/>
<path d="M423.529 254.117H381.176V296.47H423.529V254.117Z" fill="#FF7AAB"/>
<path d="M381.177 254.117H338.824V296.47H381.177V254.117Z" fill="#FF7AAB"/>
<path d="M338.824 254.117H296.471V296.47H338.824V254.117Z" fill="#FF7AAB"/>
<path d="M296.47 296.471H254.117V338.824H296.47V296.471Z" fill="#FF7AAB"/>
<path d="M296.47 338.824H254.117V381.177H296.47V338.824Z" fill="#FF7AAB"/>
<path d="M296.47 381.176H254.117V423.529H296.47V381.176Z" fill="#FF7AAB"/>
<path d="M508.236 338.824H465.883V381.177H508.236V338.824Z" fill="#FF7AAB"/>
<path d="M550.587 338.824H508.234V381.177H550.587V338.824Z" fill="#FF7AAB"/>
<path d="M381.177 465.883H338.824V508.236H381.177V465.883Z" fill="#FF7AAB"/>
<path d="M381.177 508.234H338.824V550.587H381.177V508.234Z" fill="#FF7AAB"/>
<path d="M254.119 338.824H211.766V381.177H254.119V338.824Z" fill="#FF7AAB"/>
<path d="M211.765 338.824H169.412V381.177H211.765V338.824Z" fill="#FF7AAB"/>
<path d="M381.177 211.766H338.824V254.119H381.177V211.766Z" fill="#FF7AAB"/>
<path d="M381.177 169.412H338.824V211.765H381.177V169.412Z" fill="#FF7AAB"/>
<path d="M381.177 592.941H338.824V635.294H381.177V592.941Z" fill="#FF7AAB"/>
<path d="M635.294 338.824H592.941V381.177H635.294V338.824Z" fill="#FF7AAB"/>
<path d="M381.177 84.7051H338.824V127.058H381.177V84.7051Z" fill="#FF7AAB"/>
<path d="M127.058 338.824H84.7051V381.177H127.058V338.824Z" fill="#FF7AAB"/>
<path d="M296.47 423.529H254.117V465.882H296.47V423.529Z" fill="#FEB8D2"/>
<path d="M296.47 254.117H254.117V296.47H296.47V254.117Z" fill="#FEB8D2"/>
<path d="M381.177 296.471H338.824V338.824H381.177V296.471Z" fill="#F5E78E"/>
<path d="M423.529 338.824H381.176V381.177H423.529V338.824Z" fill="#F5E78E"/>
</g>
<defs>
<clipPath id="clip0_906_663">
<rect width="720" height="720" fill="white"/>
</clipPath>
</defs>
</svg>
