<svg width="151" height="150" viewBox="0 0 151 150" fill="none" xmlns="http://www.w3.org/2000/svg">
<path d="M102.113 130.351C92.5013 130.387 83.1471 127.249 75.5 121.425C46.9253 143.427 4.25877 122.118 4.58104 86.0229C4.59592 75.4087 8.41483 65.1501 15.3465 57.1104C22.2769 49.0711 31.8602 43.7827 42.3579 42.2045L37.0765 36.9231C26.0524 25.7604 38.8527 13.8609 48.8847 22.7862C58.9634 13.9538 71.7169 25.7388 60.6928 36.9231L55.4343 42.2045C62.7195 43.2654 69.6204 46.1446 75.4991 50.5758C81.3837 46.1411 88.2925 43.2618 95.5856 42.2045L90.3043 36.9231C79.2802 25.7604 92.0804 13.8609 102.112 22.7862C112.191 13.9538 124.945 25.7388 113.921 36.9231L108.639 42.2045C162.352 51.7752 156.865 128.689 102.113 130.35L102.113 130.351ZM78.2671 119.189C104.697 138.653 143.256 118.819 142.958 86.025C143.096 51.9381 102.944 32.7984 76.5854 54.2437C68.4142 60.847 63.086 70.3295 61.6968 80.7413C60.3063 91.1543 62.9602 101.702 69.1124 110.217C70.6688 108.934 72.0901 107.497 73.3558 105.928C68.278 98.4935 66.2571 89.3886 67.7126 80.5046C69.1683 71.6194 73.9897 63.636 81.1742 58.2114C103.684 40.868 137.33 57.7044 137.055 86.1407C137.448 113.816 105.042 130.883 82.5131 115.015V115.014C81.189 116.495 79.7722 117.889 78.2697 119.189L78.2671 119.189ZM46.2104 45.3873C-6.0259 50.6915 -3.58253 125.116 48.8861 126.982C82.0736 127.166 101.585 88.6764 81.889 62.0367C80.3406 63.3288 78.9262 64.773 77.6685 66.3489C82.7371 73.7853 84.7501 82.8855 83.29 91.7651C81.8308 100.645 77.0093 108.621 69.8272 114.043C47.3647 131.27 13.6914 114.435 13.9698 86.0215C13.5772 58.439 46.003 41.2588 68.5821 57.1479C69.8878 55.6144 71.2977 54.1737 72.8026 52.8346C65.0916 47.2898 55.6856 44.6142 46.211 45.2701L46.2104 45.3873ZM84.7241 112.175C105.042 126.244 134.01 110.746 133.662 86.0221C133.939 61.2765 104.971 45.7799 84.7241 59.8699C90.2539 67.4678 93.234 76.6242 93.234 86.0221C93.234 95.4211 90.2539 104.578 84.7241 112.175ZM48.9556 54.5191H48.9544C40.5957 54.5134 32.5769 57.83 26.6636 63.7386C20.7503 69.6472 17.4283 77.6637 17.4283 86.0223C17.0827 110.769 46.0487 126.244 66.275 112.176C60.7452 104.572 57.7675 95.4123 57.7675 86.0109C57.7675 76.6096 60.7452 67.4508 66.275 59.8474C61.139 56.3786 55.0816 54.5314 48.8859 54.542L48.9556 54.5191ZM75.5 69.2341C72.3345 74.2579 70.6557 80.0739 70.6557 86.0112C70.6557 91.9497 72.3346 97.7654 75.5 102.79C78.6643 97.7657 80.3431 91.9497 80.3431 86.0112C80.3431 80.0739 78.6642 74.2582 75.5 69.2341ZM48.8855 41.7202H50.9615L58.2491 34.4326C64.4301 28.4358 60.9247 21.0568 53.89 23.6625V23.6613C52.4778 24.3068 51.2029 25.2143 50.1306 26.337C49.8067 26.662 49.3673 26.844 48.9084 26.844C48.3362 26.8371 47.7994 26.5647 47.455 26.107C46.3792 25.0255 45.0918 24.1775 43.6728 23.6156C36.5466 21.3096 33.5481 28.7815 39.522 34.4783L46.8096 41.7659H48.8157L48.8855 41.7202ZM102.115 41.7202H104.191L111.479 34.4326C119.85 25.6002 110.072 18.958 103.337 26.2913C102.652 26.9413 101.577 26.9413 100.892 26.2913C99.8182 25.1664 98.533 24.2657 97.1094 23.6386C90.1904 21.0785 86.5693 28.4131 92.7503 34.4315L100.038 41.7191C100.707 41.7203 101.423 41.7203 102.114 41.7203L102.115 41.7202Z" fill="black"/>
</svg>
