<svg width="292" height="80" viewBox="0 0 292 80" fill="none" xmlns="http://www.w3.org/2000/svg">
<path d="M255.163 74.1401C257.136 71.702 263.268 62.2542 255.727 47.6253C260.308 50.04 266.181 44.6245 258.569 38.6229C265.053 40.1467 274.261 39.5137 279.171 32.4572C285.514 30.9333 290.071 26.3618 291.621 19.8445C292.796 14.8744 291.175 9.08377 287.628 5.05145C287.111 4.46536 286.547 3.90271 285.937 3.38695C281.92 -0.0358402 276.869 -0.879815 271.583 0.948797C271.325 1.04257 271.114 1.23012 270.996 1.488C270.879 1.74588 270.879 2.02721 270.996 2.28509L271.184 2.75396C271.349 3.17595 271.818 3.38695 272.241 3.22284C276.728 1.62867 281.027 2.30853 284.41 5.19211C288.403 8.59146 290.47 14.5227 289.343 19.3287C287.792 25.8695 282.977 29.9721 276.094 30.6286C272.5 30.9568 266.274 30.9333 253.777 26.8072C249.643 25.4475 242.243 23.0094 234.796 22.7046C239.424 19.5162 241.914 15.437 242.548 13.4443C244.146 8.38046 241.632 3.66827 236.018 3.38695C243.159 5.16867 242.783 14.1007 233.199 19.0005C221.688 25.1427 201.909 18.2503 193.898 41.6471C193.969 41.1548 194.039 40.7328 194.11 40.3577C194.415 38.365 194.321 34.4968 192.771 32.5744C188.848 27.6981 182.106 32.5275 183.374 40.6625C183.468 41.2017 183.633 41.7643 183.774 42.327C179.874 38.5291 175.105 38.6932 173.626 39.5137C175.81 39.3496 177.924 40.9204 178.935 42.0926C180.508 43.9446 182.294 47.4377 183.562 49.5477C184.455 51.0012 186.499 54.0723 188.261 55.8775C191.737 59.4644 199.489 62.8168 207.453 59.6754C208.815 59.1362 210.671 58.4094 212.315 56.3698C214.312 53.9082 212.832 50.7433 210.248 51.7045C207.476 52.736 208.134 56.065 206.584 57.331C204.187 59.3237 196.2 58.7142 194.227 51.8686C193.358 48.774 193.734 44.8824 196.318 40.8031C201.65 32.2931 212.574 27.3933 220.584 27.2292C223.92 27.1823 228.595 27.7684 231.578 30.4176C234.068 32.6213 235.196 35.8565 234.162 38.3181C233.129 40.7563 231.061 38.9511 230.31 40.3812C229.628 41.6706 232.071 43.4054 234.303 40.3108C236.041 37.8961 236.417 33.2074 232.353 29.5267C230.404 27.7684 228.054 26.9479 225.611 26.5728C234.749 27.5809 246.659 33.8638 253.143 46.1014C256.291 52.0561 257.771 59.4644 256.667 65.3722C256.197 68.0448 255.093 70.6236 253.378 72.7101C251.71 74.82 249.408 76.4611 246.894 77.2582C242.102 78.8055 238.766 76.8362 238.484 76.7893C238.297 76.6486 231.743 73.6478 232.424 66.3099C232.612 64.2938 233.434 62.512 234.491 61.2461C236.441 58.8079 239.401 57.2138 241.656 57.3075C239.213 56.5105 235.994 57.964 233.645 60.4959C232.33 61.8322 231.249 63.8249 230.944 66.1458C230.615 68.4668 231.014 71.0925 232.306 73.4837C234.303 77.1878 237.333 78.4538 237.521 78.5945C237.78 78.6648 241.82 81.1264 247.552 79.3681C250.535 78.4772 253.237 76.6252 255.21 74.187L255.163 74.1401ZM192.935 53.6034C189.247 50.1103 185.817 44.9527 185.089 40.3577C184.079 34.0045 188.683 30.3472 191.361 33.6528C192.348 34.8719 192.653 37.9665 192.324 40.0764C191.902 42.7724 190.962 48.7037 192.935 53.6269V53.6034ZM256.314 36.1144C252.932 34.825 249.713 33.1839 246.565 31.6132C243.84 30.23 241.045 28.8234 238.132 27.6043C236.229 26.8072 233.575 25.8695 230.638 25.2365C239.73 24.627 249.102 27.7215 253.025 29.011C265.969 33.2777 272.5 33.3012 276.305 32.9495C276.376 32.9495 276.446 32.9261 276.517 32.9261C271.067 38.7167 261.694 38.2009 256.314 36.1378V36.1144ZM254.059 43.6398C251.804 40.3577 249.173 36.5364 245.109 32.9261C245.414 33.0667 245.72 33.2074 246.025 33.348C249.267 34.9657 253.002 36.888 256.244 39.0918C264.865 44.9292 258.17 49.618 254.059 43.6164V43.6398Z" fill="black"/>
<path d="M178.911 39.42C177.055 38.7401 176.186 39.5606 175.34 40.6156C175.058 40.9438 174.542 42.4677 174.377 42.8428C174.119 43.382 173.673 43.8508 173.109 44.0384C171.864 44.4369 170.971 43.2882 171.253 42.1394C171.911 39.42 176.186 37.9899 178.911 39.4434V39.42Z" fill="black"/>
<path d="M198.714 41.1548C196.318 42.9834 195.378 46.8047 194.791 51.2356C196.271 45.4216 199.348 45.8436 201.627 44.2963C204.54 42.3035 201.486 39.0214 198.714 41.1548Z" fill="black"/>
<path d="M236.817 22.306C242.807 21.8137 242.901 18.7191 244.804 16.7499C247.247 14.218 249.995 17.758 247.411 20.1258C245.226 22.1654 241.256 22.4701 236.793 22.306H236.817Z" fill="black"/>
<path d="M232.377 4.60602C231.602 5.49688 231.837 6.92695 233.129 7.13794C233.716 7.23172 234.327 7.04417 234.82 6.66907C235.149 6.43463 236.323 5.33278 236.723 5.14523C237.944 4.60602 238.719 4.44191 240.035 5.89543C238.25 3.03529 234.209 2.47264 232.377 4.58258V4.60602Z" fill="black"/>
<path d="M252.462 51.4466C253.354 48.5865 251.945 44.8824 249.854 40.9438C252.015 46.5469 249.243 47.9769 248.28 50.5323C247.059 53.8379 251.428 54.7522 252.462 51.4466Z" fill="black"/>
<path d="M267.519 3.85582C269.328 1.46456 273.04 -0.153059 277.221 0.0579349C270.949 1.08946 272.218 4.46536 270.667 6.7394C268.671 9.64642 265.382 6.62218 267.496 3.85582H267.519Z" fill="black"/>
<path d="M44.4949 79.3212C50.2502 81.0795 54.2672 78.6179 54.5256 78.5476C54.7135 78.3835 57.7439 77.1409 59.7406 73.4368C61.0327 71.0456 61.432 68.4199 61.1031 66.0989C60.7977 63.778 59.7172 61.7853 58.4017 60.449C56.0525 57.9171 52.8108 56.4636 50.3912 57.2607C52.6463 57.1669 55.5827 58.7611 57.556 61.1992C58.6366 62.4886 59.4353 64.2469 59.6232 66.2631C60.3279 73.6009 53.7504 76.6017 53.5625 76.7424C53.3041 76.7893 49.9449 78.7586 45.1527 77.2113C42.6391 76.4142 40.337 74.7731 38.6691 72.6632C36.9543 70.5767 35.8737 67.9979 35.3804 65.3253C34.2763 59.4409 35.7327 52.0093 38.904 46.0545C45.3876 33.8404 57.2976 27.5574 66.4356 26.5259C63.9925 26.9245 61.6434 27.7215 59.6937 29.4798C55.6297 33.1605 56.0056 37.8492 57.7439 40.2639C59.9756 43.3585 62.4421 41.6237 61.7374 40.3343C60.9857 38.8808 58.9185 40.7094 57.8848 38.2712C56.8512 35.8331 57.9788 32.5744 60.4689 30.3707C63.4522 27.745 68.1505 27.1355 71.4627 27.1823C79.4732 27.3464 90.3965 32.2227 95.729 40.7563C98.313 44.8589 98.6889 48.7271 97.8197 51.7514C95.823 58.6907 87.836 59.3003 85.4634 57.3075C83.9365 56.0416 84.5707 52.7126 81.7988 51.681C79.2148 50.7199 77.7348 53.8848 79.7316 56.3464C81.376 58.3625 83.2083 59.1127 84.5942 59.6519C92.5577 62.7934 100.286 59.4409 103.786 55.854C105.548 54.0254 107.592 50.9777 108.485 49.5242C109.753 47.3908 111.539 43.9212 113.112 42.0691C114.123 40.8969 116.237 39.3262 118.421 39.4903C116.941 38.6698 112.149 38.5057 108.273 42.3036C108.414 41.7409 108.602 41.1783 108.673 40.639C109.965 32.5041 103.223 27.6981 99.2762 32.551C97.7258 34.4733 97.6318 38.3416 97.9372 40.3343C98.0077 40.7094 98.0546 41.1314 98.1486 41.6237C90.1381 18.2268 70.3586 25.0958 58.8245 18.977C49.2401 14.1007 48.8878 5.14523 56.0291 3.3635C50.4147 3.64483 47.9011 8.35702 49.4985 13.4209C50.1328 15.3901 52.6228 19.4928 57.2506 22.6811C49.7804 22.9859 42.3807 25.4241 38.2698 26.7838C25.749 30.9099 19.5239 30.9568 15.9532 30.6051C9.07032 29.9721 4.25465 25.846 2.70423 19.3052C1.57666 14.4993 3.64388 8.56801 7.63737 5.16867C11.0201 2.28509 15.319 1.60522 19.8058 3.1994C20.2286 3.3635 20.6984 3.15251 20.8629 2.73052L21.0508 2.26165C21.1448 2.00377 21.1448 1.72244 21.0508 1.46456C20.9333 1.20668 20.7219 1.01913 20.4635 0.925353C15.131 -0.879815 10.0804 -0.0358399 6.06346 3.38695C5.45269 3.90271 4.88891 4.46536 4.3721 5.05145C0.824946 9.10722 -0.795941 14.8978 0.378615 19.8679C1.92903 26.3853 6.4863 30.9568 12.8289 32.4806C17.762 39.5137 26.9471 40.1702 33.4306 38.6463C25.8195 44.6479 31.6923 50.0634 36.273 47.6487C28.7324 62.2776 34.8636 71.702 36.8368 74.1636C38.8101 76.5783 41.5115 78.4538 44.4949 79.3447V79.3212ZM99.6755 40.053C99.3467 37.943 99.6755 34.8719 100.639 33.6294C103.317 30.3238 107.921 34.0045 106.911 40.3343C106.183 44.9293 102.753 50.0869 99.0648 53.58C101.038 48.6802 100.098 42.7255 99.6755 40.0295V40.053ZM15.4834 32.9026C15.4834 32.9026 15.6243 32.9261 15.6948 32.9261C19.5004 33.2777 26.0309 33.2543 38.9745 28.9875C42.921 27.6981 52.294 24.6035 61.3615 25.2131C58.4251 25.846 55.7941 26.7838 53.8679 27.5809C50.955 28.8 48.136 30.2066 45.4346 31.5898C42.3102 33.1605 39.0685 34.8016 35.6858 36.091C30.3063 38.154 20.9333 38.6698 15.4834 32.8792V32.9026ZM35.7562 39.1152C38.998 36.9115 42.7331 34.9891 45.9749 33.3715C46.2802 33.2308 46.5856 33.0902 46.891 32.9495C42.8036 36.5364 40.196 40.3577 37.9409 43.6633C33.83 49.6414 27.135 44.9761 35.7562 39.1386V39.1152Z" fill="black"/>
<path d="M113.065 39.42C114.921 38.7401 115.79 39.5606 116.636 40.6156C116.918 40.9438 117.435 42.4677 117.599 42.8428C117.858 43.382 118.304 43.8508 118.868 44.0384C120.113 44.4369 120.982 43.2882 120.724 42.1394C120.066 39.42 115.79 37.9899 113.065 39.4434V39.42Z" fill="black"/>
<path d="M93.2859 41.1548C95.682 42.9834 96.6452 46.8047 97.209 51.2356C95.729 45.4216 92.6517 45.8436 90.373 44.2963C87.4602 42.3035 90.514 39.0214 93.2859 41.1548Z" fill="black"/>
<path d="M55.1834 22.306C49.1931 21.8137 49.0992 18.7191 47.1964 16.7499C44.7533 14.218 42.0049 17.758 44.5654 20.1258C46.7736 22.1654 50.7201 22.4701 55.1834 22.306Z" fill="black"/>
<path d="M59.6232 4.60602C60.3984 5.49688 60.1635 6.92695 58.8715 7.13794C58.2842 7.23172 57.6734 7.04417 57.1801 6.66907C56.8512 6.43463 55.6767 5.33278 55.2773 5.14523C54.0558 4.60602 53.2806 4.44191 51.9651 5.89543C53.7504 3.03529 57.7909 2.47264 59.6232 4.58258V4.60602Z" fill="black"/>
<path d="M39.5148 51.4466C38.6221 48.5865 40.0316 44.8824 42.1223 40.9438C39.9611 46.5469 42.7331 47.9769 43.6962 50.5323C44.9178 53.8379 40.5484 54.7522 39.5148 51.4466Z" fill="black"/>
<path d="M24.4805 3.85582C22.6482 1.46456 18.9601 -0.153059 14.7552 0.0579349C21.0273 1.08946 19.7588 4.46536 21.3092 6.7394C23.3059 9.64642 26.5947 6.62218 24.4805 3.85582Z" fill="black"/>
<path d="M165.098 8.00536C163.877 5.30933 159.531 4.79357 157.511 5.47344C149.9 8.09914 149.195 16.1403 148.067 22.5639C149.406 16.3982 151.544 8.75556 157.933 7.02072C159.108 6.71596 160.611 6.92695 161.222 7.37238C162.209 8.07569 161.128 8.80245 161.622 9.85742C162.115 10.9124 163.712 11.0062 164.581 10.4435C165.169 10.045 165.615 9.20099 165.075 8.00536H165.098Z" fill="black"/>
<path d="M126.902 8.00536C128.123 5.30933 132.469 4.79357 134.466 5.47344C142.077 8.09914 142.782 16.1403 143.909 22.5639C142.57 16.3982 140.433 8.75556 134.043 7.02072C132.868 6.71596 131.365 6.92695 130.754 7.37238C129.768 8.07569 130.848 8.80245 130.355 9.85742C129.862 10.9124 128.264 11.0062 127.395 10.4435C126.808 10.045 126.361 9.20099 126.902 8.00536Z" fill="black"/>
<path d="M135.1 19.0005C136.157 21.8137 139.563 23.8299 143.627 25.6585C138.459 22.5639 139.775 19.7507 138.953 17.1484C137.872 13.796 133.855 15.7652 135.1 19.0239V19.0005Z" fill="black"/>
<path d="M156.876 19.0005C155.819 21.8137 152.413 23.8299 148.349 25.6585C153.517 22.5639 152.202 19.7507 153.024 17.1484C154.104 13.796 158.121 15.7652 156.876 19.0239V19.0005Z" fill="black"/>
<path d="M149.923 7.44271C148.255 3.87926 143.768 3.87926 142.1 7.44271C140.08 11.7095 141.983 17.7345 144.356 24.2988C142.899 18.0158 144.144 15.2964 146 12.9754C147.879 15.2964 149.101 18.0158 147.644 24.2988C150.04 17.7345 151.92 11.7095 149.9 7.44271H149.923Z" fill="black"/>
<path d="M116.354 27.1354C114.992 29.7611 117.27 33.4887 119.056 34.6374C125.821 38.998 132.61 34.5437 138.365 31.4491C132.681 34.2155 125.328 37.2631 120.019 33.3246C119.056 32.5978 118.304 31.285 118.257 30.5113C118.21 29.2923 119.455 29.7143 119.972 28.6593C120.489 27.6043 119.573 26.3149 118.609 25.9867C117.928 25.7523 116.988 25.9398 116.378 27.112L116.354 27.1354Z" fill="black"/>
<path d="M139.986 57.0965C137.12 57.7999 134.02 54.7287 133.315 52.7126C130.66 45.1168 136.58 39.5841 140.949 34.7312C136.932 39.6075 132.234 46.0077 134.818 52.0796C135.288 53.1814 136.392 54.2364 137.144 54.4474C138.295 54.7756 138.201 53.4862 139.352 53.2283C140.503 52.9705 141.56 54.1661 141.631 55.1742C141.701 55.8775 141.302 56.7683 140.01 57.0731L139.986 57.0965Z" fill="black"/>
<path d="M143.58 43.8508C145.131 41.272 144.638 37.3569 143.533 33.0433C144.285 38.998 141.278 39.7247 139.728 41.9753C137.755 44.8824 141.795 46.8282 143.58 43.8508Z" fill="black"/>
<path d="M130.12 26.7838C132.986 25.8929 136.674 27.2761 140.644 29.3626C135.03 27.2292 133.597 29.9956 131.036 30.9568C127.747 32.1993 126.784 27.8153 130.12 26.7838Z" fill="black"/>
<path d="M125.304 39.3965C123.542 42.9131 126.314 46.4296 130.144 45.5388C134.748 44.4838 138.318 39.2793 142.007 33.3246C137.966 38.365 135.053 39.0683 132.093 39.0449C132.751 36.1378 134.137 33.4887 139.986 30.7458C133.338 32.9261 127.419 35.1767 125.328 39.3965H125.304Z" fill="black"/>
<path d="M175.646 27.1354C177.008 29.7611 174.73 33.4887 172.944 34.6374C166.179 38.998 159.39 34.5437 153.635 31.4491C159.319 34.2155 166.672 37.2631 171.981 33.3246C172.944 32.5978 173.696 31.285 173.743 30.5113C173.79 29.2923 172.545 29.7143 172.028 28.6593C171.511 27.6043 172.427 26.3149 173.391 25.9867C174.072 25.7523 175.012 25.9398 175.622 27.112L175.646 27.1354Z" fill="black"/>
<path d="M151.99 57.0965C154.856 57.7999 157.957 54.7287 158.662 52.7126C161.316 45.1168 155.396 39.5841 151.027 34.7312C155.044 39.6075 159.742 46.0077 157.158 52.0796C156.688 53.1814 155.584 54.2364 154.833 54.4474C153.682 54.7756 153.776 53.4862 152.624 53.2283C151.473 52.9705 150.416 54.1661 150.346 55.1742C150.275 55.8775 150.675 56.7683 151.967 57.0731L151.99 57.0965Z" fill="black"/>
<path d="M148.42 43.8508C146.869 41.272 147.362 37.3569 148.467 33.0433C147.715 38.998 150.722 39.7247 152.272 41.9753C154.245 44.8824 150.205 46.8282 148.42 43.8508Z" fill="black"/>
<path d="M161.88 26.7838C159.014 25.8929 155.326 27.2761 151.356 29.3626C156.97 27.2292 158.403 29.9956 160.964 30.9568C164.253 32.1993 165.216 27.8153 161.88 26.7838Z" fill="black"/>
<path d="M166.696 39.3965C168.457 42.9131 165.686 46.4296 161.857 45.5388C157.252 44.4838 153.682 39.2793 149.993 33.3246C154.034 38.365 156.947 39.0683 159.907 39.0449C159.249 36.1378 157.863 33.4887 152.014 30.7458C158.662 32.9261 164.581 35.1767 166.672 39.3965H166.696Z" fill="black"/>
<path d="M142.805 29.2454C142.805 27.4871 144.238 26.057 146 26.057C147.762 26.057 149.195 27.4871 149.195 29.2454C149.195 31.0037 147.762 32.4337 146 32.4337C144.238 32.4337 142.805 31.0037 142.805 29.2454Z" fill="black"/>
</svg>
